%TF.GenerationSoftware,KiCad,Pcbnew,(6.0.4)*%
%TF.CreationDate,2023-03-08T18:50:13+01:00*%
%TF.ProjectId,65C816_SBC_VGA_ALT,36354338-3136-45f5-9342-435f5647415f,rev?*%
%TF.SameCoordinates,Original*%
%TF.FileFunction,Legend,Top*%
%TF.FilePolarity,Positive*%
%FSLAX46Y46*%
G04 Gerber Fmt 4.6, Leading zero omitted, Abs format (unit mm)*
G04 Created by KiCad (PCBNEW (6.0.4)) date 2023-03-08 18:50:13*
%MOMM*%
%LPD*%
G01*
G04 APERTURE LIST*
%ADD10C,0.150000*%
%ADD11C,0.250000*%
%ADD12C,0.254000*%
%ADD13C,0.120000*%
%ADD14C,0.200000*%
%ADD15C,0.100000*%
G04 APERTURE END LIST*
D10*
X61420952Y-121372380D02*
X61420952Y-122086666D01*
X61373333Y-122229523D01*
X61278095Y-122324761D01*
X61135238Y-122372380D01*
X61040000Y-122372380D01*
X62373333Y-122372380D02*
X61897142Y-122372380D01*
X61897142Y-121372380D01*
X63278095Y-122277142D02*
X63230476Y-122324761D01*
X63087619Y-122372380D01*
X62992380Y-122372380D01*
X62849523Y-122324761D01*
X62754285Y-122229523D01*
X62706666Y-122134285D01*
X62659047Y-121943809D01*
X62659047Y-121800952D01*
X62706666Y-121610476D01*
X62754285Y-121515238D01*
X62849523Y-121420000D01*
X62992380Y-121372380D01*
X63087619Y-121372380D01*
X63230476Y-121420000D01*
X63278095Y-121467619D01*
X63992380Y-121372380D02*
X63992380Y-122086666D01*
X63944761Y-122229523D01*
X63849523Y-122324761D01*
X63706666Y-122372380D01*
X63611428Y-122372380D01*
X64944761Y-122372380D02*
X64468571Y-122372380D01*
X64468571Y-121372380D01*
X65849523Y-122277142D02*
X65801904Y-122324761D01*
X65659047Y-122372380D01*
X65563809Y-122372380D01*
X65420952Y-122324761D01*
X65325714Y-122229523D01*
X65278095Y-122134285D01*
X65230476Y-121943809D01*
X65230476Y-121800952D01*
X65278095Y-121610476D01*
X65325714Y-121515238D01*
X65420952Y-121420000D01*
X65563809Y-121372380D01*
X65659047Y-121372380D01*
X65801904Y-121420000D01*
X65849523Y-121467619D01*
X66563809Y-121372380D02*
X66563809Y-122086666D01*
X66516190Y-122229523D01*
X66420952Y-122324761D01*
X66278095Y-122372380D01*
X66182857Y-122372380D01*
X67516190Y-122372380D02*
X67040000Y-122372380D01*
X67040000Y-121372380D01*
X68420952Y-122277142D02*
X68373333Y-122324761D01*
X68230476Y-122372380D01*
X68135238Y-122372380D01*
X67992380Y-122324761D01*
X67897142Y-122229523D01*
X67849523Y-122134285D01*
X67801904Y-121943809D01*
X67801904Y-121800952D01*
X67849523Y-121610476D01*
X67897142Y-121515238D01*
X67992380Y-121420000D01*
X68135238Y-121372380D01*
X68230476Y-121372380D01*
X68373333Y-121420000D01*
X68420952Y-121467619D01*
X69135238Y-121372380D02*
X69135238Y-122086666D01*
X69087619Y-122229523D01*
X68992380Y-122324761D01*
X68849523Y-122372380D01*
X68754285Y-122372380D01*
X70087619Y-122372380D02*
X69611428Y-122372380D01*
X69611428Y-121372380D01*
X70992380Y-122277142D02*
X70944761Y-122324761D01*
X70801904Y-122372380D01*
X70706666Y-122372380D01*
X70563809Y-122324761D01*
X70468571Y-122229523D01*
X70420952Y-122134285D01*
X70373333Y-121943809D01*
X70373333Y-121800952D01*
X70420952Y-121610476D01*
X70468571Y-121515238D01*
X70563809Y-121420000D01*
X70706666Y-121372380D01*
X70801904Y-121372380D01*
X70944761Y-121420000D01*
X70992380Y-121467619D01*
X132540952Y-136612380D02*
X132540952Y-137326666D01*
X132493333Y-137469523D01*
X132398095Y-137564761D01*
X132255238Y-137612380D01*
X132160000Y-137612380D01*
X133493333Y-137612380D02*
X133017142Y-137612380D01*
X133017142Y-136612380D01*
X134398095Y-137517142D02*
X134350476Y-137564761D01*
X134207619Y-137612380D01*
X134112380Y-137612380D01*
X133969523Y-137564761D01*
X133874285Y-137469523D01*
X133826666Y-137374285D01*
X133779047Y-137183809D01*
X133779047Y-137040952D01*
X133826666Y-136850476D01*
X133874285Y-136755238D01*
X133969523Y-136660000D01*
X134112380Y-136612380D01*
X134207619Y-136612380D01*
X134350476Y-136660000D01*
X134398095Y-136707619D01*
X135112380Y-136612380D02*
X135112380Y-137326666D01*
X135064761Y-137469523D01*
X134969523Y-137564761D01*
X134826666Y-137612380D01*
X134731428Y-137612380D01*
X136064761Y-137612380D02*
X135588571Y-137612380D01*
X135588571Y-136612380D01*
X136969523Y-137517142D02*
X136921904Y-137564761D01*
X136779047Y-137612380D01*
X136683809Y-137612380D01*
X136540952Y-137564761D01*
X136445714Y-137469523D01*
X136398095Y-137374285D01*
X136350476Y-137183809D01*
X136350476Y-137040952D01*
X136398095Y-136850476D01*
X136445714Y-136755238D01*
X136540952Y-136660000D01*
X136683809Y-136612380D01*
X136779047Y-136612380D01*
X136921904Y-136660000D01*
X136969523Y-136707619D01*
X137683809Y-136612380D02*
X137683809Y-137326666D01*
X137636190Y-137469523D01*
X137540952Y-137564761D01*
X137398095Y-137612380D01*
X137302857Y-137612380D01*
X138636190Y-137612380D02*
X138160000Y-137612380D01*
X138160000Y-136612380D01*
X139540952Y-137517142D02*
X139493333Y-137564761D01*
X139350476Y-137612380D01*
X139255238Y-137612380D01*
X139112380Y-137564761D01*
X139017142Y-137469523D01*
X138969523Y-137374285D01*
X138921904Y-137183809D01*
X138921904Y-137040952D01*
X138969523Y-136850476D01*
X139017142Y-136755238D01*
X139112380Y-136660000D01*
X139255238Y-136612380D01*
X139350476Y-136612380D01*
X139493333Y-136660000D01*
X139540952Y-136707619D01*
X140255238Y-136612380D02*
X140255238Y-137326666D01*
X140207619Y-137469523D01*
X140112380Y-137564761D01*
X139969523Y-137612380D01*
X139874285Y-137612380D01*
X141207619Y-137612380D02*
X140731428Y-137612380D01*
X140731428Y-136612380D01*
X142112380Y-137517142D02*
X142064761Y-137564761D01*
X141921904Y-137612380D01*
X141826666Y-137612380D01*
X141683809Y-137564761D01*
X141588571Y-137469523D01*
X141540952Y-137374285D01*
X141493333Y-137183809D01*
X141493333Y-137040952D01*
X141540952Y-136850476D01*
X141588571Y-136755238D01*
X141683809Y-136660000D01*
X141826666Y-136612380D01*
X141921904Y-136612380D01*
X142064761Y-136660000D01*
X142112380Y-136707619D01*
D11*
X65104761Y-59864761D02*
X64723809Y-59864761D01*
X64533333Y-59960000D01*
X64438095Y-60055238D01*
X64247619Y-60340952D01*
X64152380Y-60721904D01*
X64152380Y-61483809D01*
X64247619Y-61674285D01*
X64342857Y-61769523D01*
X64533333Y-61864761D01*
X64914285Y-61864761D01*
X65104761Y-61769523D01*
X65199999Y-61674285D01*
X65295238Y-61483809D01*
X65295238Y-61007619D01*
X65199999Y-60817142D01*
X65104761Y-60721904D01*
X64914285Y-60626666D01*
X64533333Y-60626666D01*
X64342857Y-60721904D01*
X64247619Y-60817142D01*
X64152380Y-61007619D01*
X67104761Y-59864761D02*
X66152380Y-59864761D01*
X66057142Y-60817142D01*
X66152380Y-60721904D01*
X66342857Y-60626666D01*
X66819047Y-60626666D01*
X67009523Y-60721904D01*
X67104761Y-60817142D01*
X67200000Y-61007619D01*
X67200000Y-61483809D01*
X67104761Y-61674285D01*
X67009523Y-61769523D01*
X66819047Y-61864761D01*
X66342857Y-61864761D01*
X66152380Y-61769523D01*
X66057142Y-61674285D01*
X68342857Y-60721904D02*
X68152380Y-60626666D01*
X68057142Y-60531428D01*
X67961904Y-60340952D01*
X67961904Y-60245714D01*
X68057142Y-60055238D01*
X68152380Y-59960000D01*
X68342857Y-59864761D01*
X68723809Y-59864761D01*
X68914285Y-59960000D01*
X69009523Y-60055238D01*
X69104761Y-60245714D01*
X69104761Y-60340952D01*
X69009523Y-60531428D01*
X68914285Y-60626666D01*
X68723809Y-60721904D01*
X68342857Y-60721904D01*
X68152380Y-60817142D01*
X68057142Y-60912380D01*
X67961904Y-61102857D01*
X67961904Y-61483809D01*
X68057142Y-61674285D01*
X68152380Y-61769523D01*
X68342857Y-61864761D01*
X68723809Y-61864761D01*
X68914285Y-61769523D01*
X69009523Y-61674285D01*
X69104761Y-61483809D01*
X69104761Y-61102857D01*
X69009523Y-60912380D01*
X68914285Y-60817142D01*
X68723809Y-60721904D01*
X71009523Y-61864761D02*
X69866666Y-61864761D01*
X70438095Y-61864761D02*
X70438095Y-59864761D01*
X70247619Y-60150476D01*
X70057142Y-60340952D01*
X69866666Y-60436190D01*
X72723809Y-59864761D02*
X72342857Y-59864761D01*
X72152380Y-59960000D01*
X72057142Y-60055238D01*
X71866666Y-60340952D01*
X71771428Y-60721904D01*
X71771428Y-61483809D01*
X71866666Y-61674285D01*
X71961904Y-61769523D01*
X72152380Y-61864761D01*
X72533333Y-61864761D01*
X72723809Y-61769523D01*
X72819047Y-61674285D01*
X72914285Y-61483809D01*
X72914285Y-61007619D01*
X72819047Y-60817142D01*
X72723809Y-60721904D01*
X72533333Y-60626666D01*
X72152380Y-60626666D01*
X71961904Y-60721904D01*
X71866666Y-60817142D01*
X71771428Y-61007619D01*
X75009523Y-59864761D02*
X75676190Y-61864761D01*
X76342857Y-59864761D01*
X78057142Y-59960000D02*
X77866666Y-59864761D01*
X77580952Y-59864761D01*
X77295238Y-59960000D01*
X77104761Y-60150476D01*
X77009523Y-60340952D01*
X76914285Y-60721904D01*
X76914285Y-61007619D01*
X77009523Y-61388571D01*
X77104761Y-61579047D01*
X77295238Y-61769523D01*
X77580952Y-61864761D01*
X77771428Y-61864761D01*
X78057142Y-61769523D01*
X78152380Y-61674285D01*
X78152380Y-61007619D01*
X77771428Y-61007619D01*
X78914285Y-61293333D02*
X79866666Y-61293333D01*
X78723809Y-61864761D02*
X79390476Y-59864761D01*
X80057142Y-61864761D01*
X83390476Y-61674285D02*
X83295238Y-61769523D01*
X83009523Y-61864761D01*
X82819047Y-61864761D01*
X82533333Y-61769523D01*
X82342857Y-61579047D01*
X82247619Y-61388571D01*
X82152380Y-61007619D01*
X82152380Y-60721904D01*
X82247619Y-60340952D01*
X82342857Y-60150476D01*
X82533333Y-59960000D01*
X82819047Y-59864761D01*
X83009523Y-59864761D01*
X83295238Y-59960000D01*
X83390476Y-60055238D01*
X85104761Y-61864761D02*
X85104761Y-60817142D01*
X85009523Y-60626666D01*
X84819047Y-60531428D01*
X84438095Y-60531428D01*
X84247619Y-60626666D01*
X85104761Y-61769523D02*
X84914285Y-61864761D01*
X84438095Y-61864761D01*
X84247619Y-61769523D01*
X84152380Y-61579047D01*
X84152380Y-61388571D01*
X84247619Y-61198095D01*
X84438095Y-61102857D01*
X84914285Y-61102857D01*
X85104761Y-61007619D01*
X86057142Y-61864761D02*
X86057142Y-60531428D01*
X86057142Y-60912380D02*
X86152380Y-60721904D01*
X86247619Y-60626666D01*
X86438095Y-60531428D01*
X86628571Y-60531428D01*
X88152380Y-61864761D02*
X88152380Y-59864761D01*
X88152380Y-61769523D02*
X87961904Y-61864761D01*
X87580952Y-61864761D01*
X87390476Y-61769523D01*
X87295238Y-61674285D01*
X87200000Y-61483809D01*
X87200000Y-60912380D01*
X87295238Y-60721904D01*
X87390476Y-60626666D01*
X87580952Y-60531428D01*
X87961904Y-60531428D01*
X88152380Y-60626666D01*
D10*
X64470595Y-63401428D02*
X65232500Y-63401428D01*
X65613452Y-62782380D02*
X66232500Y-62782380D01*
X65899166Y-63163333D01*
X66042023Y-63163333D01*
X66137261Y-63210952D01*
X66184880Y-63258571D01*
X66232500Y-63353809D01*
X66232500Y-63591904D01*
X66184880Y-63687142D01*
X66137261Y-63734761D01*
X66042023Y-63782380D01*
X65756309Y-63782380D01*
X65661071Y-63734761D01*
X65613452Y-63687142D01*
X66613452Y-62877619D02*
X66661071Y-62830000D01*
X66756309Y-62782380D01*
X66994404Y-62782380D01*
X67089642Y-62830000D01*
X67137261Y-62877619D01*
X67184880Y-62972857D01*
X67184880Y-63068095D01*
X67137261Y-63210952D01*
X66565833Y-63782380D01*
X67184880Y-63782380D01*
X68327738Y-62734761D02*
X67470595Y-64020476D01*
X69089642Y-62782380D02*
X68899166Y-62782380D01*
X68803928Y-62830000D01*
X68756309Y-62877619D01*
X68661071Y-63020476D01*
X68613452Y-63210952D01*
X68613452Y-63591904D01*
X68661071Y-63687142D01*
X68708690Y-63734761D01*
X68803928Y-63782380D01*
X68994404Y-63782380D01*
X69089642Y-63734761D01*
X69137261Y-63687142D01*
X69184880Y-63591904D01*
X69184880Y-63353809D01*
X69137261Y-63258571D01*
X69089642Y-63210952D01*
X68994404Y-63163333D01*
X68803928Y-63163333D01*
X68708690Y-63210952D01*
X68661071Y-63258571D01*
X68613452Y-63353809D01*
X70042023Y-63115714D02*
X70042023Y-63782380D01*
X69803928Y-62734761D02*
X69565833Y-63449047D01*
X70184880Y-63449047D01*
X70565833Y-63782380D02*
X70565833Y-62782380D01*
X70661071Y-63401428D02*
X70946785Y-63782380D01*
X70946785Y-63115714D02*
X70565833Y-63496666D01*
X71708690Y-63258571D02*
X71851547Y-63306190D01*
X71899166Y-63353809D01*
X71946785Y-63449047D01*
X71946785Y-63591904D01*
X71899166Y-63687142D01*
X71851547Y-63734761D01*
X71756309Y-63782380D01*
X71375357Y-63782380D01*
X71375357Y-62782380D01*
X71708690Y-62782380D01*
X71803928Y-62830000D01*
X71851547Y-62877619D01*
X71899166Y-62972857D01*
X71899166Y-63068095D01*
X71851547Y-63163333D01*
X71803928Y-63210952D01*
X71708690Y-63258571D01*
X71375357Y-63258571D01*
X72994404Y-62782380D02*
X73327738Y-63782380D01*
X73661071Y-62782380D01*
X74565833Y-63782380D02*
X74232500Y-63306190D01*
X73994404Y-63782380D02*
X73994404Y-62782380D01*
X74375357Y-62782380D01*
X74470595Y-62830000D01*
X74518214Y-62877619D01*
X74565833Y-62972857D01*
X74565833Y-63115714D01*
X74518214Y-63210952D01*
X74470595Y-63258571D01*
X74375357Y-63306190D01*
X73994404Y-63306190D01*
X74946785Y-63496666D02*
X75422976Y-63496666D01*
X74851547Y-63782380D02*
X75184880Y-62782380D01*
X75518214Y-63782380D01*
X75851547Y-63782380D02*
X75851547Y-62782380D01*
X76184880Y-63496666D01*
X76518214Y-62782380D01*
X76518214Y-63782380D01*
X64470595Y-65011428D02*
X65232500Y-65011428D01*
X66184880Y-64392380D02*
X65708690Y-64392380D01*
X65661071Y-64868571D01*
X65708690Y-64820952D01*
X65803928Y-64773333D01*
X66042023Y-64773333D01*
X66137261Y-64820952D01*
X66184880Y-64868571D01*
X66232500Y-64963809D01*
X66232500Y-65201904D01*
X66184880Y-65297142D01*
X66137261Y-65344761D01*
X66042023Y-65392380D01*
X65803928Y-65392380D01*
X65708690Y-65344761D01*
X65661071Y-65297142D01*
X67184880Y-65392380D02*
X66613452Y-65392380D01*
X66899166Y-65392380D02*
X66899166Y-64392380D01*
X66803928Y-64535238D01*
X66708690Y-64630476D01*
X66613452Y-64678095D01*
X67565833Y-64487619D02*
X67613452Y-64440000D01*
X67708690Y-64392380D01*
X67946785Y-64392380D01*
X68042023Y-64440000D01*
X68089642Y-64487619D01*
X68137261Y-64582857D01*
X68137261Y-64678095D01*
X68089642Y-64820952D01*
X67518214Y-65392380D01*
X68137261Y-65392380D01*
X69327738Y-65392380D02*
X69327738Y-64392380D01*
X69661071Y-65106666D01*
X69994404Y-64392380D01*
X69994404Y-65392380D01*
X70899166Y-65392380D02*
X70899166Y-64868571D01*
X70851547Y-64773333D01*
X70756309Y-64725714D01*
X70565833Y-64725714D01*
X70470595Y-64773333D01*
X70899166Y-65344761D02*
X70803928Y-65392380D01*
X70565833Y-65392380D01*
X70470595Y-65344761D01*
X70422976Y-65249523D01*
X70422976Y-65154285D01*
X70470595Y-65059047D01*
X70565833Y-65011428D01*
X70803928Y-65011428D01*
X70899166Y-64963809D01*
X71280119Y-65392380D02*
X71803928Y-64725714D01*
X71280119Y-64725714D02*
X71803928Y-65392380D01*
X73518214Y-65297142D02*
X73470595Y-65344761D01*
X73327738Y-65392380D01*
X73232500Y-65392380D01*
X73089642Y-65344761D01*
X72994404Y-65249523D01*
X72946785Y-65154285D01*
X72899166Y-64963809D01*
X72899166Y-64820952D01*
X72946785Y-64630476D01*
X72994404Y-64535238D01*
X73089642Y-64440000D01*
X73232500Y-64392380D01*
X73327738Y-64392380D01*
X73470595Y-64440000D01*
X73518214Y-64487619D01*
X74089642Y-65392380D02*
X73994404Y-65344761D01*
X73946785Y-65297142D01*
X73899166Y-65201904D01*
X73899166Y-64916190D01*
X73946785Y-64820952D01*
X73994404Y-64773333D01*
X74089642Y-64725714D01*
X74232500Y-64725714D01*
X74327738Y-64773333D01*
X74375357Y-64820952D01*
X74422976Y-64916190D01*
X74422976Y-65201904D01*
X74375357Y-65297142D01*
X74327738Y-65344761D01*
X74232500Y-65392380D01*
X74089642Y-65392380D01*
X74994404Y-65392380D02*
X74899166Y-65344761D01*
X74851547Y-65249523D01*
X74851547Y-64392380D01*
X75518214Y-65392380D02*
X75422976Y-65344761D01*
X75375357Y-65297142D01*
X75327738Y-65201904D01*
X75327738Y-64916190D01*
X75375357Y-64820952D01*
X75422976Y-64773333D01*
X75518214Y-64725714D01*
X75661071Y-64725714D01*
X75756309Y-64773333D01*
X75803928Y-64820952D01*
X75851547Y-64916190D01*
X75851547Y-65201904D01*
X75803928Y-65297142D01*
X75756309Y-65344761D01*
X75661071Y-65392380D01*
X75518214Y-65392380D01*
X76280119Y-65392380D02*
X76280119Y-64725714D01*
X76280119Y-64916190D02*
X76327738Y-64820952D01*
X76375357Y-64773333D01*
X76470595Y-64725714D01*
X76565833Y-64725714D01*
X76851547Y-65344761D02*
X76946785Y-65392380D01*
X77137261Y-65392380D01*
X77232500Y-65344761D01*
X77280119Y-65249523D01*
X77280119Y-65201904D01*
X77232500Y-65106666D01*
X77137261Y-65059047D01*
X76994404Y-65059047D01*
X76899166Y-65011428D01*
X76851547Y-64916190D01*
X76851547Y-64868571D01*
X76899166Y-64773333D01*
X76994404Y-64725714D01*
X77137261Y-64725714D01*
X77232500Y-64773333D01*
%TO.C,R9*%
X76033333Y-114922380D02*
X75700000Y-114446190D01*
X75461904Y-114922380D02*
X75461904Y-113922380D01*
X75842857Y-113922380D01*
X75938095Y-113970000D01*
X75985714Y-114017619D01*
X76033333Y-114112857D01*
X76033333Y-114255714D01*
X75985714Y-114350952D01*
X75938095Y-114398571D01*
X75842857Y-114446190D01*
X75461904Y-114446190D01*
X76509523Y-114922380D02*
X76700000Y-114922380D01*
X76795238Y-114874761D01*
X76842857Y-114827142D01*
X76938095Y-114684285D01*
X76985714Y-114493809D01*
X76985714Y-114112857D01*
X76938095Y-114017619D01*
X76890476Y-113970000D01*
X76795238Y-113922380D01*
X76604761Y-113922380D01*
X76509523Y-113970000D01*
X76461904Y-114017619D01*
X76414285Y-114112857D01*
X76414285Y-114350952D01*
X76461904Y-114446190D01*
X76509523Y-114493809D01*
X76604761Y-114541428D01*
X76795238Y-114541428D01*
X76890476Y-114493809D01*
X76938095Y-114446190D01*
X76985714Y-114350952D01*
X79081428Y-116292380D02*
X78890952Y-116292380D01*
X78795714Y-116340000D01*
X78748095Y-116387619D01*
X78652857Y-116530476D01*
X78605238Y-116720952D01*
X78605238Y-117101904D01*
X78652857Y-117197142D01*
X78700476Y-117244761D01*
X78795714Y-117292380D01*
X78986190Y-117292380D01*
X79081428Y-117244761D01*
X79129047Y-117197142D01*
X79176666Y-117101904D01*
X79176666Y-116863809D01*
X79129047Y-116768571D01*
X79081428Y-116720952D01*
X78986190Y-116673333D01*
X78795714Y-116673333D01*
X78700476Y-116720952D01*
X78652857Y-116768571D01*
X78605238Y-116863809D01*
X79748095Y-116720952D02*
X79652857Y-116673333D01*
X79605238Y-116625714D01*
X79557619Y-116530476D01*
X79557619Y-116482857D01*
X79605238Y-116387619D01*
X79652857Y-116340000D01*
X79748095Y-116292380D01*
X79938571Y-116292380D01*
X80033809Y-116340000D01*
X80081428Y-116387619D01*
X80129047Y-116482857D01*
X80129047Y-116530476D01*
X80081428Y-116625714D01*
X80033809Y-116673333D01*
X79938571Y-116720952D01*
X79748095Y-116720952D01*
X79652857Y-116768571D01*
X79605238Y-116816190D01*
X79557619Y-116911428D01*
X79557619Y-117101904D01*
X79605238Y-117197142D01*
X79652857Y-117244761D01*
X79748095Y-117292380D01*
X79938571Y-117292380D01*
X80033809Y-117244761D01*
X80081428Y-117197142D01*
X80129047Y-117101904D01*
X80129047Y-116911428D01*
X80081428Y-116816190D01*
X80033809Y-116768571D01*
X79938571Y-116720952D01*
%TO.C,U4*%
X179578095Y-97227380D02*
X179578095Y-98036904D01*
X179625714Y-98132142D01*
X179673333Y-98179761D01*
X179768571Y-98227380D01*
X179959047Y-98227380D01*
X180054285Y-98179761D01*
X180101904Y-98132142D01*
X180149523Y-98036904D01*
X180149523Y-97227380D01*
X181054285Y-97560714D02*
X181054285Y-98227380D01*
X180816190Y-97179761D02*
X180578095Y-97894047D01*
X181197142Y-97894047D01*
X185761904Y-131897380D02*
X185761904Y-130897380D01*
X186238095Y-131897380D02*
X186238095Y-130897380D01*
X186476190Y-130897380D01*
X186619047Y-130945000D01*
X186714285Y-131040238D01*
X186761904Y-131135476D01*
X186809523Y-131325952D01*
X186809523Y-131468809D01*
X186761904Y-131659285D01*
X186714285Y-131754523D01*
X186619047Y-131849761D01*
X186476190Y-131897380D01*
X186238095Y-131897380D01*
X187095238Y-130897380D02*
X187666666Y-130897380D01*
X187380952Y-131897380D02*
X187380952Y-130897380D01*
X187904761Y-130897380D02*
X188571428Y-130897380D01*
X188142857Y-131897380D01*
X189142857Y-130897380D02*
X189238095Y-130897380D01*
X189333333Y-130945000D01*
X189380952Y-130992619D01*
X189428571Y-131087857D01*
X189476190Y-131278333D01*
X189476190Y-131516428D01*
X189428571Y-131706904D01*
X189380952Y-131802142D01*
X189333333Y-131849761D01*
X189238095Y-131897380D01*
X189142857Y-131897380D01*
X189047619Y-131849761D01*
X189000000Y-131802142D01*
X188952380Y-131706904D01*
X188904761Y-131516428D01*
X188904761Y-131278333D01*
X188952380Y-131087857D01*
X189000000Y-130992619D01*
X189047619Y-130945000D01*
X189142857Y-130897380D01*
X190095238Y-130897380D02*
X190190476Y-130897380D01*
X190285714Y-130945000D01*
X190333333Y-130992619D01*
X190380952Y-131087857D01*
X190428571Y-131278333D01*
X190428571Y-131516428D01*
X190380952Y-131706904D01*
X190333333Y-131802142D01*
X190285714Y-131849761D01*
X190190476Y-131897380D01*
X190095238Y-131897380D01*
X190000000Y-131849761D01*
X189952380Y-131802142D01*
X189904761Y-131706904D01*
X189857142Y-131516428D01*
X189857142Y-131278333D01*
X189904761Y-131087857D01*
X189952380Y-130992619D01*
X190000000Y-130945000D01*
X190095238Y-130897380D01*
X191333333Y-130897380D02*
X190857142Y-130897380D01*
X190809523Y-131373571D01*
X190857142Y-131325952D01*
X190952380Y-131278333D01*
X191190476Y-131278333D01*
X191285714Y-131325952D01*
X191333333Y-131373571D01*
X191380952Y-131468809D01*
X191380952Y-131706904D01*
X191333333Y-131802142D01*
X191285714Y-131849761D01*
X191190476Y-131897380D01*
X190952380Y-131897380D01*
X190857142Y-131849761D01*
X190809523Y-131802142D01*
X191761904Y-131849761D02*
X191904761Y-131897380D01*
X192142857Y-131897380D01*
X192238095Y-131849761D01*
X192285714Y-131802142D01*
X192333333Y-131706904D01*
X192333333Y-131611666D01*
X192285714Y-131516428D01*
X192238095Y-131468809D01*
X192142857Y-131421190D01*
X191952380Y-131373571D01*
X191857142Y-131325952D01*
X191809523Y-131278333D01*
X191761904Y-131183095D01*
X191761904Y-131087857D01*
X191809523Y-130992619D01*
X191857142Y-130945000D01*
X191952380Y-130897380D01*
X192190476Y-130897380D01*
X192333333Y-130945000D01*
X193476190Y-130849761D02*
X192619047Y-132135476D01*
X194238095Y-130897380D02*
X194047619Y-130897380D01*
X193952380Y-130945000D01*
X193904761Y-130992619D01*
X193809523Y-131135476D01*
X193761904Y-131325952D01*
X193761904Y-131706904D01*
X193809523Y-131802142D01*
X193857142Y-131849761D01*
X193952380Y-131897380D01*
X194142857Y-131897380D01*
X194238095Y-131849761D01*
X194285714Y-131802142D01*
X194333333Y-131706904D01*
X194333333Y-131468809D01*
X194285714Y-131373571D01*
X194238095Y-131325952D01*
X194142857Y-131278333D01*
X193952380Y-131278333D01*
X193857142Y-131325952D01*
X193809523Y-131373571D01*
X193761904Y-131468809D01*
X194714285Y-131849761D02*
X194857142Y-131897380D01*
X195095238Y-131897380D01*
X195190476Y-131849761D01*
X195238095Y-131802142D01*
X195285714Y-131706904D01*
X195285714Y-131611666D01*
X195238095Y-131516428D01*
X195190476Y-131468809D01*
X195095238Y-131421190D01*
X194904761Y-131373571D01*
X194809523Y-131325952D01*
X194761904Y-131278333D01*
X194714285Y-131183095D01*
X194714285Y-131087857D01*
X194761904Y-130992619D01*
X194809523Y-130945000D01*
X194904761Y-130897380D01*
X195142857Y-130897380D01*
X195285714Y-130945000D01*
%TO.C,R1*%
X76033333Y-104762380D02*
X75700000Y-104286190D01*
X75461904Y-104762380D02*
X75461904Y-103762380D01*
X75842857Y-103762380D01*
X75938095Y-103810000D01*
X75985714Y-103857619D01*
X76033333Y-103952857D01*
X76033333Y-104095714D01*
X75985714Y-104190952D01*
X75938095Y-104238571D01*
X75842857Y-104286190D01*
X75461904Y-104286190D01*
X76985714Y-104762380D02*
X76414285Y-104762380D01*
X76700000Y-104762380D02*
X76700000Y-103762380D01*
X76604761Y-103905238D01*
X76509523Y-104000476D01*
X76414285Y-104048095D01*
X79176666Y-107132380D02*
X78605237Y-107132380D01*
X78890952Y-107132380D02*
X78890952Y-106132380D01*
X78795714Y-106275238D01*
X78700475Y-106370476D01*
X78605237Y-106418095D01*
X79605237Y-107132380D02*
X79605237Y-106132380D01*
X79700475Y-106751428D02*
X79986190Y-107132380D01*
X79986190Y-106465714D02*
X79605237Y-106846666D01*
%TO.C,R4*%
X76033333Y-89522380D02*
X75700000Y-89046190D01*
X75461904Y-89522380D02*
X75461904Y-88522380D01*
X75842857Y-88522380D01*
X75938095Y-88570000D01*
X75985714Y-88617619D01*
X76033333Y-88712857D01*
X76033333Y-88855714D01*
X75985714Y-88950952D01*
X75938095Y-88998571D01*
X75842857Y-89046190D01*
X75461904Y-89046190D01*
X76890476Y-88855714D02*
X76890476Y-89522380D01*
X76652380Y-88474761D02*
X76414285Y-89189047D01*
X77033333Y-89189047D01*
X79176666Y-91892380D02*
X78605237Y-91892380D01*
X78890952Y-91892380D02*
X78890952Y-90892380D01*
X78795714Y-91035238D01*
X78700475Y-91130476D01*
X78605237Y-91178095D01*
X79605237Y-91892380D02*
X79605237Y-90892380D01*
X79700475Y-91511428D02*
X79986190Y-91892380D01*
X79986190Y-91225714D02*
X79605237Y-91606666D01*
%TO.C,R5*%
X76033333Y-94602380D02*
X75700000Y-94126190D01*
X75461904Y-94602380D02*
X75461904Y-93602380D01*
X75842857Y-93602380D01*
X75938095Y-93650000D01*
X75985714Y-93697619D01*
X76033333Y-93792857D01*
X76033333Y-93935714D01*
X75985714Y-94030952D01*
X75938095Y-94078571D01*
X75842857Y-94126190D01*
X75461904Y-94126190D01*
X76938095Y-93602380D02*
X76461904Y-93602380D01*
X76414285Y-94078571D01*
X76461904Y-94030952D01*
X76557142Y-93983333D01*
X76795238Y-93983333D01*
X76890476Y-94030952D01*
X76938095Y-94078571D01*
X76985714Y-94173809D01*
X76985714Y-94411904D01*
X76938095Y-94507142D01*
X76890476Y-94554761D01*
X76795238Y-94602380D01*
X76557142Y-94602380D01*
X76461904Y-94554761D01*
X76414285Y-94507142D01*
X79081428Y-96305714D02*
X79081428Y-96972380D01*
X78843333Y-95924761D02*
X78605237Y-96639047D01*
X79224285Y-96639047D01*
X79509999Y-95972380D02*
X80176666Y-95972380D01*
X79748094Y-96972380D01*
X80748094Y-95972380D02*
X80843333Y-95972380D01*
X80938571Y-96020000D01*
X80986190Y-96067619D01*
X81033809Y-96162857D01*
X81081428Y-96353333D01*
X81081428Y-96591428D01*
X81033809Y-96781904D01*
X80986190Y-96877142D01*
X80938571Y-96924761D01*
X80843333Y-96972380D01*
X80748094Y-96972380D01*
X80652856Y-96924761D01*
X80605237Y-96877142D01*
X80557618Y-96781904D01*
X80509999Y-96591428D01*
X80509999Y-96353333D01*
X80557618Y-96162857D01*
X80605237Y-96067619D01*
X80652856Y-96020000D01*
X80748094Y-95972380D01*
%TO.C,R0*%
X76033333Y-99682380D02*
X75700000Y-99206190D01*
X75461904Y-99682380D02*
X75461904Y-98682380D01*
X75842857Y-98682380D01*
X75938095Y-98730000D01*
X75985714Y-98777619D01*
X76033333Y-98872857D01*
X76033333Y-99015714D01*
X75985714Y-99110952D01*
X75938095Y-99158571D01*
X75842857Y-99206190D01*
X75461904Y-99206190D01*
X76652380Y-98682380D02*
X76747619Y-98682380D01*
X76842857Y-98730000D01*
X76890476Y-98777619D01*
X76938095Y-98872857D01*
X76985714Y-99063333D01*
X76985714Y-99301428D01*
X76938095Y-99491904D01*
X76890476Y-99587142D01*
X76842857Y-99634761D01*
X76747619Y-99682380D01*
X76652380Y-99682380D01*
X76557142Y-99634761D01*
X76509523Y-99587142D01*
X76461904Y-99491904D01*
X76414285Y-99301428D01*
X76414285Y-99063333D01*
X76461904Y-98872857D01*
X76509523Y-98777619D01*
X76557142Y-98730000D01*
X76652380Y-98682380D01*
X78605238Y-101147619D02*
X78652857Y-101100000D01*
X78748095Y-101052380D01*
X78986190Y-101052380D01*
X79081428Y-101100000D01*
X79129047Y-101147619D01*
X79176666Y-101242857D01*
X79176666Y-101338095D01*
X79129047Y-101480952D01*
X78557619Y-102052380D01*
X79176666Y-102052380D01*
X79605238Y-101957142D02*
X79652857Y-102004761D01*
X79605238Y-102052380D01*
X79557619Y-102004761D01*
X79605238Y-101957142D01*
X79605238Y-102052380D01*
X80033809Y-101147619D02*
X80081428Y-101100000D01*
X80176666Y-101052380D01*
X80414761Y-101052380D01*
X80510000Y-101100000D01*
X80557619Y-101147619D01*
X80605238Y-101242857D01*
X80605238Y-101338095D01*
X80557619Y-101480952D01*
X79986190Y-102052380D01*
X80605238Y-102052380D01*
X81033809Y-102052380D02*
X81033809Y-101052380D01*
X81129047Y-101671428D02*
X81414761Y-102052380D01*
X81414761Y-101385714D02*
X81033809Y-101766666D01*
%TO.C,U2*%
X179578095Y-59127380D02*
X179578095Y-59936904D01*
X179625714Y-60032142D01*
X179673333Y-60079761D01*
X179768571Y-60127380D01*
X179959047Y-60127380D01*
X180054285Y-60079761D01*
X180101904Y-60032142D01*
X180149523Y-59936904D01*
X180149523Y-59127380D01*
X180578095Y-59222619D02*
X180625714Y-59175000D01*
X180720952Y-59127380D01*
X180959047Y-59127380D01*
X181054285Y-59175000D01*
X181101904Y-59222619D01*
X181149523Y-59317857D01*
X181149523Y-59413095D01*
X181101904Y-59555952D01*
X180530476Y-60127380D01*
X181149523Y-60127380D01*
X185761904Y-93797380D02*
X185761904Y-92797380D01*
X186238095Y-93797380D02*
X186238095Y-92797380D01*
X186476190Y-92797380D01*
X186619047Y-92845000D01*
X186714285Y-92940238D01*
X186761904Y-93035476D01*
X186809523Y-93225952D01*
X186809523Y-93368809D01*
X186761904Y-93559285D01*
X186714285Y-93654523D01*
X186619047Y-93749761D01*
X186476190Y-93797380D01*
X186238095Y-93797380D01*
X187095238Y-92797380D02*
X187666666Y-92797380D01*
X187380952Y-93797380D02*
X187380952Y-92797380D01*
X187904761Y-92797380D02*
X188571428Y-92797380D01*
X188142857Y-93797380D01*
X189142857Y-92797380D02*
X189238095Y-92797380D01*
X189333333Y-92845000D01*
X189380952Y-92892619D01*
X189428571Y-92987857D01*
X189476190Y-93178333D01*
X189476190Y-93416428D01*
X189428571Y-93606904D01*
X189380952Y-93702142D01*
X189333333Y-93749761D01*
X189238095Y-93797380D01*
X189142857Y-93797380D01*
X189047619Y-93749761D01*
X189000000Y-93702142D01*
X188952380Y-93606904D01*
X188904761Y-93416428D01*
X188904761Y-93178333D01*
X188952380Y-92987857D01*
X189000000Y-92892619D01*
X189047619Y-92845000D01*
X189142857Y-92797380D01*
X190095238Y-92797380D02*
X190190476Y-92797380D01*
X190285714Y-92845000D01*
X190333333Y-92892619D01*
X190380952Y-92987857D01*
X190428571Y-93178333D01*
X190428571Y-93416428D01*
X190380952Y-93606904D01*
X190333333Y-93702142D01*
X190285714Y-93749761D01*
X190190476Y-93797380D01*
X190095238Y-93797380D01*
X190000000Y-93749761D01*
X189952380Y-93702142D01*
X189904761Y-93606904D01*
X189857142Y-93416428D01*
X189857142Y-93178333D01*
X189904761Y-92987857D01*
X189952380Y-92892619D01*
X190000000Y-92845000D01*
X190095238Y-92797380D01*
X191333333Y-92797380D02*
X190857142Y-92797380D01*
X190809523Y-93273571D01*
X190857142Y-93225952D01*
X190952380Y-93178333D01*
X191190476Y-93178333D01*
X191285714Y-93225952D01*
X191333333Y-93273571D01*
X191380952Y-93368809D01*
X191380952Y-93606904D01*
X191333333Y-93702142D01*
X191285714Y-93749761D01*
X191190476Y-93797380D01*
X190952380Y-93797380D01*
X190857142Y-93749761D01*
X190809523Y-93702142D01*
X191761904Y-93749761D02*
X191904761Y-93797380D01*
X192142857Y-93797380D01*
X192238095Y-93749761D01*
X192285714Y-93702142D01*
X192333333Y-93606904D01*
X192333333Y-93511666D01*
X192285714Y-93416428D01*
X192238095Y-93368809D01*
X192142857Y-93321190D01*
X191952380Y-93273571D01*
X191857142Y-93225952D01*
X191809523Y-93178333D01*
X191761904Y-93083095D01*
X191761904Y-92987857D01*
X191809523Y-92892619D01*
X191857142Y-92845000D01*
X191952380Y-92797380D01*
X192190476Y-92797380D01*
X192333333Y-92845000D01*
X193476190Y-92749761D02*
X192619047Y-94035476D01*
X194238095Y-92797380D02*
X194047619Y-92797380D01*
X193952380Y-92845000D01*
X193904761Y-92892619D01*
X193809523Y-93035476D01*
X193761904Y-93225952D01*
X193761904Y-93606904D01*
X193809523Y-93702142D01*
X193857142Y-93749761D01*
X193952380Y-93797380D01*
X194142857Y-93797380D01*
X194238095Y-93749761D01*
X194285714Y-93702142D01*
X194333333Y-93606904D01*
X194333333Y-93368809D01*
X194285714Y-93273571D01*
X194238095Y-93225952D01*
X194142857Y-93178333D01*
X193952380Y-93178333D01*
X193857142Y-93225952D01*
X193809523Y-93273571D01*
X193761904Y-93368809D01*
X194714285Y-93749761D02*
X194857142Y-93797380D01*
X195095238Y-93797380D01*
X195190476Y-93749761D01*
X195238095Y-93702142D01*
X195285714Y-93606904D01*
X195285714Y-93511666D01*
X195238095Y-93416428D01*
X195190476Y-93368809D01*
X195095238Y-93321190D01*
X194904761Y-93273571D01*
X194809523Y-93225952D01*
X194761904Y-93178333D01*
X194714285Y-93083095D01*
X194714285Y-92987857D01*
X194761904Y-92892619D01*
X194809523Y-92845000D01*
X194904761Y-92797380D01*
X195142857Y-92797380D01*
X195285714Y-92845000D01*
%TO.C,C1*%
X139573333Y-94972142D02*
X139525714Y-95019761D01*
X139382857Y-95067380D01*
X139287619Y-95067380D01*
X139144761Y-95019761D01*
X139049523Y-94924523D01*
X139001904Y-94829285D01*
X138954285Y-94638809D01*
X138954285Y-94495952D01*
X139001904Y-94305476D01*
X139049523Y-94210238D01*
X139144761Y-94115000D01*
X139287619Y-94067380D01*
X139382857Y-94067380D01*
X139525714Y-94115000D01*
X139573333Y-94162619D01*
X140525714Y-95067380D02*
X139954285Y-95067380D01*
X140240000Y-95067380D02*
X140240000Y-94067380D01*
X140144761Y-94210238D01*
X140049523Y-94305476D01*
X139954285Y-94353095D01*
%TO.C,C4*%
X177673333Y-133072142D02*
X177625714Y-133119761D01*
X177482857Y-133167380D01*
X177387619Y-133167380D01*
X177244761Y-133119761D01*
X177149523Y-133024523D01*
X177101904Y-132929285D01*
X177054285Y-132738809D01*
X177054285Y-132595952D01*
X177101904Y-132405476D01*
X177149523Y-132310238D01*
X177244761Y-132215000D01*
X177387619Y-132167380D01*
X177482857Y-132167380D01*
X177625714Y-132215000D01*
X177673333Y-132262619D01*
X178530476Y-132500714D02*
X178530476Y-133167380D01*
X178292380Y-132119761D02*
X178054285Y-132834047D01*
X178673333Y-132834047D01*
D12*
%TO.C,J2*%
X63711666Y-80584523D02*
X63711666Y-81491666D01*
X63651190Y-81673095D01*
X63530238Y-81794047D01*
X63348809Y-81854523D01*
X63227857Y-81854523D01*
X64255952Y-80705476D02*
X64316428Y-80645000D01*
X64437380Y-80584523D01*
X64739761Y-80584523D01*
X64860714Y-80645000D01*
X64921190Y-80705476D01*
X64981666Y-80826428D01*
X64981666Y-80947380D01*
X64921190Y-81128809D01*
X64195476Y-81854523D01*
X64981666Y-81854523D01*
D10*
%TO.C,R3*%
X76033333Y-84442380D02*
X75700000Y-83966190D01*
X75461904Y-84442380D02*
X75461904Y-83442380D01*
X75842857Y-83442380D01*
X75938095Y-83490000D01*
X75985714Y-83537619D01*
X76033333Y-83632857D01*
X76033333Y-83775714D01*
X75985714Y-83870952D01*
X75938095Y-83918571D01*
X75842857Y-83966190D01*
X75461904Y-83966190D01*
X76366666Y-83442380D02*
X76985714Y-83442380D01*
X76652380Y-83823333D01*
X76795238Y-83823333D01*
X76890476Y-83870952D01*
X76938095Y-83918571D01*
X76985714Y-84013809D01*
X76985714Y-84251904D01*
X76938095Y-84347142D01*
X76890476Y-84394761D01*
X76795238Y-84442380D01*
X76509523Y-84442380D01*
X76414285Y-84394761D01*
X76366666Y-84347142D01*
X78605238Y-85907619D02*
X78652857Y-85860000D01*
X78748095Y-85812380D01*
X78986190Y-85812380D01*
X79081428Y-85860000D01*
X79129047Y-85907619D01*
X79176666Y-86002857D01*
X79176666Y-86098095D01*
X79129047Y-86240952D01*
X78557619Y-86812380D01*
X79176666Y-86812380D01*
X79605238Y-86717142D02*
X79652857Y-86764761D01*
X79605238Y-86812380D01*
X79557619Y-86764761D01*
X79605238Y-86717142D01*
X79605238Y-86812380D01*
X80033809Y-85907619D02*
X80081428Y-85860000D01*
X80176666Y-85812380D01*
X80414761Y-85812380D01*
X80510000Y-85860000D01*
X80557619Y-85907619D01*
X80605238Y-86002857D01*
X80605238Y-86098095D01*
X80557619Y-86240952D01*
X79986190Y-86812380D01*
X80605238Y-86812380D01*
X81033809Y-86812380D02*
X81033809Y-85812380D01*
X81129047Y-86431428D02*
X81414761Y-86812380D01*
X81414761Y-86145714D02*
X81033809Y-86526666D01*
%TO.C,C3*%
X139573333Y-133072142D02*
X139525714Y-133119761D01*
X139382857Y-133167380D01*
X139287619Y-133167380D01*
X139144761Y-133119761D01*
X139049523Y-133024523D01*
X139001904Y-132929285D01*
X138954285Y-132738809D01*
X138954285Y-132595952D01*
X139001904Y-132405476D01*
X139049523Y-132310238D01*
X139144761Y-132215000D01*
X139287619Y-132167380D01*
X139382857Y-132167380D01*
X139525714Y-132215000D01*
X139573333Y-132262619D01*
X139906666Y-132167380D02*
X140525714Y-132167380D01*
X140192380Y-132548333D01*
X140335238Y-132548333D01*
X140430476Y-132595952D01*
X140478095Y-132643571D01*
X140525714Y-132738809D01*
X140525714Y-132976904D01*
X140478095Y-133072142D01*
X140430476Y-133119761D01*
X140335238Y-133167380D01*
X140049523Y-133167380D01*
X139954285Y-133119761D01*
X139906666Y-133072142D01*
%TO.C,J1*%
X103811666Y-68032380D02*
X103811666Y-68746666D01*
X103764047Y-68889523D01*
X103668809Y-68984761D01*
X103525952Y-69032380D01*
X103430714Y-69032380D01*
X104811666Y-69032380D02*
X104240238Y-69032380D01*
X104525952Y-69032380D02*
X104525952Y-68032380D01*
X104430714Y-68175238D01*
X104335476Y-68270476D01*
X104240238Y-68318095D01*
X90273333Y-73112380D02*
X90273333Y-73826666D01*
X90225714Y-73969523D01*
X90130476Y-74064761D01*
X89987619Y-74112380D01*
X89892380Y-74112380D01*
X90606666Y-73112380D02*
X91178095Y-73112380D01*
X90892380Y-74112380D02*
X90892380Y-73112380D01*
X91463809Y-73826666D02*
X91940000Y-73826666D01*
X91368571Y-74112380D02*
X91701904Y-73112380D01*
X92035238Y-74112380D01*
X92892380Y-73160000D02*
X92797142Y-73112380D01*
X92654285Y-73112380D01*
X92511428Y-73160000D01*
X92416190Y-73255238D01*
X92368571Y-73350476D01*
X92320952Y-73540952D01*
X92320952Y-73683809D01*
X92368571Y-73874285D01*
X92416190Y-73969523D01*
X92511428Y-74064761D01*
X92654285Y-74112380D01*
X92749523Y-74112380D01*
X92892380Y-74064761D01*
X92940000Y-74017142D01*
X92940000Y-73683809D01*
X92749523Y-73683809D01*
%TO.C,C5*%
X96393333Y-78462142D02*
X96345714Y-78509761D01*
X96202857Y-78557380D01*
X96107619Y-78557380D01*
X95964761Y-78509761D01*
X95869523Y-78414523D01*
X95821904Y-78319285D01*
X95774285Y-78128809D01*
X95774285Y-77985952D01*
X95821904Y-77795476D01*
X95869523Y-77700238D01*
X95964761Y-77605000D01*
X96107619Y-77557380D01*
X96202857Y-77557380D01*
X96345714Y-77605000D01*
X96393333Y-77652619D01*
X97298095Y-77557380D02*
X96821904Y-77557380D01*
X96774285Y-78033571D01*
X96821904Y-77985952D01*
X96917142Y-77938333D01*
X97155238Y-77938333D01*
X97250476Y-77985952D01*
X97298095Y-78033571D01*
X97345714Y-78128809D01*
X97345714Y-78366904D01*
X97298095Y-78462142D01*
X97250476Y-78509761D01*
X97155238Y-78557380D01*
X96917142Y-78557380D01*
X96821904Y-78509761D01*
X96774285Y-78462142D01*
%TO.C,U1*%
X141478095Y-59127380D02*
X141478095Y-59936904D01*
X141525714Y-60032142D01*
X141573333Y-60079761D01*
X141668571Y-60127380D01*
X141859047Y-60127380D01*
X141954285Y-60079761D01*
X142001904Y-60032142D01*
X142049523Y-59936904D01*
X142049523Y-59127380D01*
X143049523Y-60127380D02*
X142478095Y-60127380D01*
X142763809Y-60127380D02*
X142763809Y-59127380D01*
X142668571Y-59270238D01*
X142573333Y-59365476D01*
X142478095Y-59413095D01*
X147661904Y-93797380D02*
X147661904Y-92797380D01*
X148138095Y-93797380D02*
X148138095Y-92797380D01*
X148376190Y-92797380D01*
X148519047Y-92845000D01*
X148614285Y-92940238D01*
X148661904Y-93035476D01*
X148709523Y-93225952D01*
X148709523Y-93368809D01*
X148661904Y-93559285D01*
X148614285Y-93654523D01*
X148519047Y-93749761D01*
X148376190Y-93797380D01*
X148138095Y-93797380D01*
X148995238Y-92797380D02*
X149566666Y-92797380D01*
X149280952Y-93797380D02*
X149280952Y-92797380D01*
X149804761Y-92797380D02*
X150471428Y-92797380D01*
X150042857Y-93797380D01*
X151042857Y-92797380D02*
X151138095Y-92797380D01*
X151233333Y-92845000D01*
X151280952Y-92892619D01*
X151328571Y-92987857D01*
X151376190Y-93178333D01*
X151376190Y-93416428D01*
X151328571Y-93606904D01*
X151280952Y-93702142D01*
X151233333Y-93749761D01*
X151138095Y-93797380D01*
X151042857Y-93797380D01*
X150947619Y-93749761D01*
X150900000Y-93702142D01*
X150852380Y-93606904D01*
X150804761Y-93416428D01*
X150804761Y-93178333D01*
X150852380Y-92987857D01*
X150900000Y-92892619D01*
X150947619Y-92845000D01*
X151042857Y-92797380D01*
X151995238Y-92797380D02*
X152090476Y-92797380D01*
X152185714Y-92845000D01*
X152233333Y-92892619D01*
X152280952Y-92987857D01*
X152328571Y-93178333D01*
X152328571Y-93416428D01*
X152280952Y-93606904D01*
X152233333Y-93702142D01*
X152185714Y-93749761D01*
X152090476Y-93797380D01*
X151995238Y-93797380D01*
X151900000Y-93749761D01*
X151852380Y-93702142D01*
X151804761Y-93606904D01*
X151757142Y-93416428D01*
X151757142Y-93178333D01*
X151804761Y-92987857D01*
X151852380Y-92892619D01*
X151900000Y-92845000D01*
X151995238Y-92797380D01*
X153233333Y-92797380D02*
X152757142Y-92797380D01*
X152709523Y-93273571D01*
X152757142Y-93225952D01*
X152852380Y-93178333D01*
X153090476Y-93178333D01*
X153185714Y-93225952D01*
X153233333Y-93273571D01*
X153280952Y-93368809D01*
X153280952Y-93606904D01*
X153233333Y-93702142D01*
X153185714Y-93749761D01*
X153090476Y-93797380D01*
X152852380Y-93797380D01*
X152757142Y-93749761D01*
X152709523Y-93702142D01*
X153661904Y-93749761D02*
X153804761Y-93797380D01*
X154042857Y-93797380D01*
X154138095Y-93749761D01*
X154185714Y-93702142D01*
X154233333Y-93606904D01*
X154233333Y-93511666D01*
X154185714Y-93416428D01*
X154138095Y-93368809D01*
X154042857Y-93321190D01*
X153852380Y-93273571D01*
X153757142Y-93225952D01*
X153709523Y-93178333D01*
X153661904Y-93083095D01*
X153661904Y-92987857D01*
X153709523Y-92892619D01*
X153757142Y-92845000D01*
X153852380Y-92797380D01*
X154090476Y-92797380D01*
X154233333Y-92845000D01*
X155376190Y-92749761D02*
X154519047Y-94035476D01*
X156138095Y-92797380D02*
X155947619Y-92797380D01*
X155852380Y-92845000D01*
X155804761Y-92892619D01*
X155709523Y-93035476D01*
X155661904Y-93225952D01*
X155661904Y-93606904D01*
X155709523Y-93702142D01*
X155757142Y-93749761D01*
X155852380Y-93797380D01*
X156042857Y-93797380D01*
X156138095Y-93749761D01*
X156185714Y-93702142D01*
X156233333Y-93606904D01*
X156233333Y-93368809D01*
X156185714Y-93273571D01*
X156138095Y-93225952D01*
X156042857Y-93178333D01*
X155852380Y-93178333D01*
X155757142Y-93225952D01*
X155709523Y-93273571D01*
X155661904Y-93368809D01*
X156614285Y-93749761D02*
X156757142Y-93797380D01*
X156995238Y-93797380D01*
X157090476Y-93749761D01*
X157138095Y-93702142D01*
X157185714Y-93606904D01*
X157185714Y-93511666D01*
X157138095Y-93416428D01*
X157090476Y-93368809D01*
X156995238Y-93321190D01*
X156804761Y-93273571D01*
X156709523Y-93225952D01*
X156661904Y-93178333D01*
X156614285Y-93083095D01*
X156614285Y-92987857D01*
X156661904Y-92892619D01*
X156709523Y-92845000D01*
X156804761Y-92797380D01*
X157042857Y-92797380D01*
X157185714Y-92845000D01*
%TO.C,R7*%
X76033333Y-74282380D02*
X75700000Y-73806190D01*
X75461904Y-74282380D02*
X75461904Y-73282380D01*
X75842857Y-73282380D01*
X75938095Y-73330000D01*
X75985714Y-73377619D01*
X76033333Y-73472857D01*
X76033333Y-73615714D01*
X75985714Y-73710952D01*
X75938095Y-73758571D01*
X75842857Y-73806190D01*
X75461904Y-73806190D01*
X76366666Y-73282380D02*
X77033333Y-73282380D01*
X76604761Y-74282380D01*
X79176666Y-76652380D02*
X78605237Y-76652380D01*
X78890952Y-76652380D02*
X78890952Y-75652380D01*
X78795714Y-75795238D01*
X78700475Y-75890476D01*
X78605237Y-75938095D01*
X79605237Y-76652380D02*
X79605237Y-75652380D01*
X79700475Y-76271428D02*
X79986190Y-76652380D01*
X79986190Y-75985714D02*
X79605237Y-76366666D01*
%TO.C,J0*%
X136826666Y-139152380D02*
X136826666Y-139866666D01*
X136779047Y-140009523D01*
X136683809Y-140104761D01*
X136540952Y-140152380D01*
X136445714Y-140152380D01*
X137493333Y-139152380D02*
X137588571Y-139152380D01*
X137683809Y-139200000D01*
X137731428Y-139247619D01*
X137779047Y-139342857D01*
X137826666Y-139533333D01*
X137826666Y-139771428D01*
X137779047Y-139961904D01*
X137731428Y-140057142D01*
X137683809Y-140104761D01*
X137588571Y-140152380D01*
X137493333Y-140152380D01*
X137398095Y-140104761D01*
X137350476Y-140057142D01*
X137302857Y-139961904D01*
X137255238Y-139771428D01*
X137255238Y-139533333D01*
X137302857Y-139342857D01*
X137350476Y-139247619D01*
X137398095Y-139200000D01*
X137493333Y-139152380D01*
%TO.C,U0*%
X100838095Y-79502380D02*
X100838095Y-80311904D01*
X100885714Y-80407142D01*
X100933333Y-80454761D01*
X101028571Y-80502380D01*
X101219047Y-80502380D01*
X101314285Y-80454761D01*
X101361904Y-80407142D01*
X101409523Y-80311904D01*
X101409523Y-79502380D01*
X102076190Y-79502380D02*
X102171428Y-79502380D01*
X102266666Y-79550000D01*
X102314285Y-79597619D01*
X102361904Y-79692857D01*
X102409523Y-79883333D01*
X102409523Y-80121428D01*
X102361904Y-80311904D01*
X102314285Y-80407142D01*
X102266666Y-80454761D01*
X102171428Y-80502380D01*
X102076190Y-80502380D01*
X101980952Y-80454761D01*
X101933333Y-80407142D01*
X101885714Y-80311904D01*
X101838095Y-80121428D01*
X101838095Y-79883333D01*
X101885714Y-79692857D01*
X101933333Y-79597619D01*
X101980952Y-79550000D01*
X102076190Y-79502380D01*
X110442857Y-118911666D02*
X110919047Y-118911666D01*
X110347619Y-119197380D02*
X110680952Y-118197380D01*
X111014285Y-119197380D01*
X111204761Y-118197380D02*
X111776190Y-118197380D01*
X111490476Y-119197380D02*
X111490476Y-118197380D01*
X112442857Y-118673571D02*
X112109523Y-118673571D01*
X112109523Y-119197380D02*
X112109523Y-118197380D01*
X112585714Y-118197380D01*
X113490476Y-119197380D02*
X112919047Y-119197380D01*
X113204761Y-119197380D02*
X113204761Y-118197380D01*
X113109523Y-118340238D01*
X113014285Y-118435476D01*
X112919047Y-118483095D01*
X114395238Y-118197380D02*
X113919047Y-118197380D01*
X113871428Y-118673571D01*
X113919047Y-118625952D01*
X114014285Y-118578333D01*
X114252380Y-118578333D01*
X114347619Y-118625952D01*
X114395238Y-118673571D01*
X114442857Y-118768809D01*
X114442857Y-119006904D01*
X114395238Y-119102142D01*
X114347619Y-119149761D01*
X114252380Y-119197380D01*
X114014285Y-119197380D01*
X113919047Y-119149761D01*
X113871428Y-119102142D01*
X115061904Y-118197380D02*
X115157142Y-118197380D01*
X115252380Y-118245000D01*
X115300000Y-118292619D01*
X115347619Y-118387857D01*
X115395238Y-118578333D01*
X115395238Y-118816428D01*
X115347619Y-119006904D01*
X115300000Y-119102142D01*
X115252380Y-119149761D01*
X115157142Y-119197380D01*
X115061904Y-119197380D01*
X114966666Y-119149761D01*
X114919047Y-119102142D01*
X114871428Y-119006904D01*
X114823809Y-118816428D01*
X114823809Y-118578333D01*
X114871428Y-118387857D01*
X114919047Y-118292619D01*
X114966666Y-118245000D01*
X115061904Y-118197380D01*
X115966666Y-118625952D02*
X115871428Y-118578333D01*
X115823809Y-118530714D01*
X115776190Y-118435476D01*
X115776190Y-118387857D01*
X115823809Y-118292619D01*
X115871428Y-118245000D01*
X115966666Y-118197380D01*
X116157142Y-118197380D01*
X116252380Y-118245000D01*
X116300000Y-118292619D01*
X116347619Y-118387857D01*
X116347619Y-118435476D01*
X116300000Y-118530714D01*
X116252380Y-118578333D01*
X116157142Y-118625952D01*
X115966666Y-118625952D01*
X115871428Y-118673571D01*
X115823809Y-118721190D01*
X115776190Y-118816428D01*
X115776190Y-119006904D01*
X115823809Y-119102142D01*
X115871428Y-119149761D01*
X115966666Y-119197380D01*
X116157142Y-119197380D01*
X116252380Y-119149761D01*
X116300000Y-119102142D01*
X116347619Y-119006904D01*
X116347619Y-118816428D01*
X116300000Y-118721190D01*
X116252380Y-118673571D01*
X116157142Y-118625952D01*
X116728571Y-118911666D02*
X117204761Y-118911666D01*
X116633333Y-119197380D02*
X116966666Y-118197380D01*
X117300000Y-119197380D01*
X117585714Y-119149761D02*
X117728571Y-119197380D01*
X117966666Y-119197380D01*
X118061904Y-119149761D01*
X118109523Y-119102142D01*
X118157142Y-119006904D01*
X118157142Y-118911666D01*
X118109523Y-118816428D01*
X118061904Y-118768809D01*
X117966666Y-118721190D01*
X117776190Y-118673571D01*
X117680952Y-118625952D01*
X117633333Y-118578333D01*
X117585714Y-118483095D01*
X117585714Y-118387857D01*
X117633333Y-118292619D01*
X117680952Y-118245000D01*
X117776190Y-118197380D01*
X118014285Y-118197380D01*
X118157142Y-118245000D01*
%TO.C,R10*%
X75557142Y-120002380D02*
X75223809Y-119526190D01*
X74985714Y-120002380D02*
X74985714Y-119002380D01*
X75366666Y-119002380D01*
X75461904Y-119050000D01*
X75509523Y-119097619D01*
X75557142Y-119192857D01*
X75557142Y-119335714D01*
X75509523Y-119430952D01*
X75461904Y-119478571D01*
X75366666Y-119526190D01*
X74985714Y-119526190D01*
X76509523Y-120002380D02*
X75938095Y-120002380D01*
X76223809Y-120002380D02*
X76223809Y-119002380D01*
X76128571Y-119145238D01*
X76033333Y-119240476D01*
X75938095Y-119288095D01*
X77128571Y-119002380D02*
X77223809Y-119002380D01*
X77319047Y-119050000D01*
X77366666Y-119097619D01*
X77414285Y-119192857D01*
X77461904Y-119383333D01*
X77461904Y-119621428D01*
X77414285Y-119811904D01*
X77366666Y-119907142D01*
X77319047Y-119954761D01*
X77223809Y-120002380D01*
X77128571Y-120002380D01*
X77033333Y-119954761D01*
X76985714Y-119907142D01*
X76938095Y-119811904D01*
X76890476Y-119621428D01*
X76890476Y-119383333D01*
X76938095Y-119192857D01*
X76985714Y-119097619D01*
X77033333Y-119050000D01*
X77128571Y-119002380D01*
X79081428Y-121372380D02*
X78890952Y-121372380D01*
X78795714Y-121420000D01*
X78748095Y-121467619D01*
X78652857Y-121610476D01*
X78605238Y-121800952D01*
X78605238Y-122181904D01*
X78652857Y-122277142D01*
X78700476Y-122324761D01*
X78795714Y-122372380D01*
X78986190Y-122372380D01*
X79081428Y-122324761D01*
X79129047Y-122277142D01*
X79176666Y-122181904D01*
X79176666Y-121943809D01*
X79129047Y-121848571D01*
X79081428Y-121800952D01*
X78986190Y-121753333D01*
X78795714Y-121753333D01*
X78700476Y-121800952D01*
X78652857Y-121848571D01*
X78605238Y-121943809D01*
X79748095Y-121800952D02*
X79652857Y-121753333D01*
X79605238Y-121705714D01*
X79557619Y-121610476D01*
X79557619Y-121562857D01*
X79605238Y-121467619D01*
X79652857Y-121420000D01*
X79748095Y-121372380D01*
X79938571Y-121372380D01*
X80033809Y-121420000D01*
X80081428Y-121467619D01*
X80129047Y-121562857D01*
X80129047Y-121610476D01*
X80081428Y-121705714D01*
X80033809Y-121753333D01*
X79938571Y-121800952D01*
X79748095Y-121800952D01*
X79652857Y-121848571D01*
X79605238Y-121896190D01*
X79557619Y-121991428D01*
X79557619Y-122181904D01*
X79605238Y-122277142D01*
X79652857Y-122324761D01*
X79748095Y-122372380D01*
X79938571Y-122372380D01*
X80033809Y-122324761D01*
X80081428Y-122277142D01*
X80129047Y-122181904D01*
X80129047Y-121991428D01*
X80081428Y-121896190D01*
X80033809Y-121848571D01*
X79938571Y-121800952D01*
%TO.C,U3*%
X141478095Y-97227380D02*
X141478095Y-98036904D01*
X141525714Y-98132142D01*
X141573333Y-98179761D01*
X141668571Y-98227380D01*
X141859047Y-98227380D01*
X141954285Y-98179761D01*
X142001904Y-98132142D01*
X142049523Y-98036904D01*
X142049523Y-97227380D01*
X142430476Y-97227380D02*
X143049523Y-97227380D01*
X142716190Y-97608333D01*
X142859047Y-97608333D01*
X142954285Y-97655952D01*
X143001904Y-97703571D01*
X143049523Y-97798809D01*
X143049523Y-98036904D01*
X143001904Y-98132142D01*
X142954285Y-98179761D01*
X142859047Y-98227380D01*
X142573333Y-98227380D01*
X142478095Y-98179761D01*
X142430476Y-98132142D01*
X147661904Y-131897380D02*
X147661904Y-130897380D01*
X148138095Y-131897380D02*
X148138095Y-130897380D01*
X148376190Y-130897380D01*
X148519047Y-130945000D01*
X148614285Y-131040238D01*
X148661904Y-131135476D01*
X148709523Y-131325952D01*
X148709523Y-131468809D01*
X148661904Y-131659285D01*
X148614285Y-131754523D01*
X148519047Y-131849761D01*
X148376190Y-131897380D01*
X148138095Y-131897380D01*
X148995238Y-130897380D02*
X149566666Y-130897380D01*
X149280952Y-131897380D02*
X149280952Y-130897380D01*
X149804761Y-130897380D02*
X150471428Y-130897380D01*
X150042857Y-131897380D01*
X151042857Y-130897380D02*
X151138095Y-130897380D01*
X151233333Y-130945000D01*
X151280952Y-130992619D01*
X151328571Y-131087857D01*
X151376190Y-131278333D01*
X151376190Y-131516428D01*
X151328571Y-131706904D01*
X151280952Y-131802142D01*
X151233333Y-131849761D01*
X151138095Y-131897380D01*
X151042857Y-131897380D01*
X150947619Y-131849761D01*
X150900000Y-131802142D01*
X150852380Y-131706904D01*
X150804761Y-131516428D01*
X150804761Y-131278333D01*
X150852380Y-131087857D01*
X150900000Y-130992619D01*
X150947619Y-130945000D01*
X151042857Y-130897380D01*
X151995238Y-130897380D02*
X152090476Y-130897380D01*
X152185714Y-130945000D01*
X152233333Y-130992619D01*
X152280952Y-131087857D01*
X152328571Y-131278333D01*
X152328571Y-131516428D01*
X152280952Y-131706904D01*
X152233333Y-131802142D01*
X152185714Y-131849761D01*
X152090476Y-131897380D01*
X151995238Y-131897380D01*
X151900000Y-131849761D01*
X151852380Y-131802142D01*
X151804761Y-131706904D01*
X151757142Y-131516428D01*
X151757142Y-131278333D01*
X151804761Y-131087857D01*
X151852380Y-130992619D01*
X151900000Y-130945000D01*
X151995238Y-130897380D01*
X153233333Y-130897380D02*
X152757142Y-130897380D01*
X152709523Y-131373571D01*
X152757142Y-131325952D01*
X152852380Y-131278333D01*
X153090476Y-131278333D01*
X153185714Y-131325952D01*
X153233333Y-131373571D01*
X153280952Y-131468809D01*
X153280952Y-131706904D01*
X153233333Y-131802142D01*
X153185714Y-131849761D01*
X153090476Y-131897380D01*
X152852380Y-131897380D01*
X152757142Y-131849761D01*
X152709523Y-131802142D01*
X153661904Y-131849761D02*
X153804761Y-131897380D01*
X154042857Y-131897380D01*
X154138095Y-131849761D01*
X154185714Y-131802142D01*
X154233333Y-131706904D01*
X154233333Y-131611666D01*
X154185714Y-131516428D01*
X154138095Y-131468809D01*
X154042857Y-131421190D01*
X153852380Y-131373571D01*
X153757142Y-131325952D01*
X153709523Y-131278333D01*
X153661904Y-131183095D01*
X153661904Y-131087857D01*
X153709523Y-130992619D01*
X153757142Y-130945000D01*
X153852380Y-130897380D01*
X154090476Y-130897380D01*
X154233333Y-130945000D01*
X155376190Y-130849761D02*
X154519047Y-132135476D01*
X156138095Y-130897380D02*
X155947619Y-130897380D01*
X155852380Y-130945000D01*
X155804761Y-130992619D01*
X155709523Y-131135476D01*
X155661904Y-131325952D01*
X155661904Y-131706904D01*
X155709523Y-131802142D01*
X155757142Y-131849761D01*
X155852380Y-131897380D01*
X156042857Y-131897380D01*
X156138095Y-131849761D01*
X156185714Y-131802142D01*
X156233333Y-131706904D01*
X156233333Y-131468809D01*
X156185714Y-131373571D01*
X156138095Y-131325952D01*
X156042857Y-131278333D01*
X155852380Y-131278333D01*
X155757142Y-131325952D01*
X155709523Y-131373571D01*
X155661904Y-131468809D01*
X156614285Y-131849761D02*
X156757142Y-131897380D01*
X156995238Y-131897380D01*
X157090476Y-131849761D01*
X157138095Y-131802142D01*
X157185714Y-131706904D01*
X157185714Y-131611666D01*
X157138095Y-131516428D01*
X157090476Y-131468809D01*
X156995238Y-131421190D01*
X156804761Y-131373571D01*
X156709523Y-131325952D01*
X156661904Y-131278333D01*
X156614285Y-131183095D01*
X156614285Y-131087857D01*
X156661904Y-130992619D01*
X156709523Y-130945000D01*
X156804761Y-130897380D01*
X157042857Y-130897380D01*
X157185714Y-130945000D01*
%TO.C,C2*%
X177673333Y-94972142D02*
X177625714Y-95019761D01*
X177482857Y-95067380D01*
X177387619Y-95067380D01*
X177244761Y-95019761D01*
X177149523Y-94924523D01*
X177101904Y-94829285D01*
X177054285Y-94638809D01*
X177054285Y-94495952D01*
X177101904Y-94305476D01*
X177149523Y-94210238D01*
X177244761Y-94115000D01*
X177387619Y-94067380D01*
X177482857Y-94067380D01*
X177625714Y-94115000D01*
X177673333Y-94162619D01*
X178054285Y-94162619D02*
X178101904Y-94115000D01*
X178197142Y-94067380D01*
X178435238Y-94067380D01*
X178530476Y-94115000D01*
X178578095Y-94162619D01*
X178625714Y-94257857D01*
X178625714Y-94353095D01*
X178578095Y-94495952D01*
X178006666Y-95067380D01*
X178625714Y-95067380D01*
%TO.C,X0*%
X113490476Y-60582380D02*
X114157142Y-61582380D01*
X114157142Y-60582380D02*
X113490476Y-61582380D01*
X114728571Y-60582380D02*
X114823809Y-60582380D01*
X114919047Y-60630000D01*
X114966666Y-60677619D01*
X115014285Y-60772857D01*
X115061904Y-60963333D01*
X115061904Y-61201428D01*
X115014285Y-61391904D01*
X114966666Y-61487142D01*
X114919047Y-61534761D01*
X114823809Y-61582380D01*
X114728571Y-61582380D01*
X114633333Y-61534761D01*
X114585714Y-61487142D01*
X114538095Y-61391904D01*
X114490476Y-61201428D01*
X114490476Y-60963333D01*
X114538095Y-60772857D01*
X114585714Y-60677619D01*
X114633333Y-60630000D01*
X114728571Y-60582380D01*
%TO.C,R8*%
X76033333Y-79362380D02*
X75700000Y-78886190D01*
X75461904Y-79362380D02*
X75461904Y-78362380D01*
X75842857Y-78362380D01*
X75938095Y-78410000D01*
X75985714Y-78457619D01*
X76033333Y-78552857D01*
X76033333Y-78695714D01*
X75985714Y-78790952D01*
X75938095Y-78838571D01*
X75842857Y-78886190D01*
X75461904Y-78886190D01*
X76604761Y-78790952D02*
X76509523Y-78743333D01*
X76461904Y-78695714D01*
X76414285Y-78600476D01*
X76414285Y-78552857D01*
X76461904Y-78457619D01*
X76509523Y-78410000D01*
X76604761Y-78362380D01*
X76795238Y-78362380D01*
X76890476Y-78410000D01*
X76938095Y-78457619D01*
X76985714Y-78552857D01*
X76985714Y-78600476D01*
X76938095Y-78695714D01*
X76890476Y-78743333D01*
X76795238Y-78790952D01*
X76604761Y-78790952D01*
X76509523Y-78838571D01*
X76461904Y-78886190D01*
X76414285Y-78981428D01*
X76414285Y-79171904D01*
X76461904Y-79267142D01*
X76509523Y-79314761D01*
X76604761Y-79362380D01*
X76795238Y-79362380D01*
X76890476Y-79314761D01*
X76938095Y-79267142D01*
X76985714Y-79171904D01*
X76985714Y-78981428D01*
X76938095Y-78886190D01*
X76890476Y-78838571D01*
X76795238Y-78790952D01*
X79081428Y-81065714D02*
X79081428Y-81732380D01*
X78843333Y-80684761D02*
X78605237Y-81399047D01*
X79224285Y-81399047D01*
X79509999Y-80732380D02*
X80176666Y-80732380D01*
X79748094Y-81732380D01*
X80748094Y-80732380D02*
X80843333Y-80732380D01*
X80938571Y-80780000D01*
X80986190Y-80827619D01*
X81033809Y-80922857D01*
X81081428Y-81113333D01*
X81081428Y-81351428D01*
X81033809Y-81541904D01*
X80986190Y-81637142D01*
X80938571Y-81684761D01*
X80843333Y-81732380D01*
X80748094Y-81732380D01*
X80652856Y-81684761D01*
X80605237Y-81637142D01*
X80557618Y-81541904D01*
X80509999Y-81351428D01*
X80509999Y-81113333D01*
X80557618Y-80922857D01*
X80605237Y-80827619D01*
X80652856Y-80780000D01*
X80748094Y-80732380D01*
%TO.C,R6*%
X76033333Y-69202380D02*
X75700000Y-68726190D01*
X75461904Y-69202380D02*
X75461904Y-68202380D01*
X75842857Y-68202380D01*
X75938095Y-68250000D01*
X75985714Y-68297619D01*
X76033333Y-68392857D01*
X76033333Y-68535714D01*
X75985714Y-68630952D01*
X75938095Y-68678571D01*
X75842857Y-68726190D01*
X75461904Y-68726190D01*
X76890476Y-68202380D02*
X76700000Y-68202380D01*
X76604761Y-68250000D01*
X76557142Y-68297619D01*
X76461904Y-68440476D01*
X76414285Y-68630952D01*
X76414285Y-69011904D01*
X76461904Y-69107142D01*
X76509523Y-69154761D01*
X76604761Y-69202380D01*
X76795238Y-69202380D01*
X76890476Y-69154761D01*
X76938095Y-69107142D01*
X76985714Y-69011904D01*
X76985714Y-68773809D01*
X76938095Y-68678571D01*
X76890476Y-68630952D01*
X76795238Y-68583333D01*
X76604761Y-68583333D01*
X76509523Y-68630952D01*
X76461904Y-68678571D01*
X76414285Y-68773809D01*
X78605238Y-70667619D02*
X78652857Y-70620000D01*
X78748095Y-70572380D01*
X78986190Y-70572380D01*
X79081428Y-70620000D01*
X79129047Y-70667619D01*
X79176666Y-70762857D01*
X79176666Y-70858095D01*
X79129047Y-71000952D01*
X78557619Y-71572380D01*
X79176666Y-71572380D01*
X79605238Y-71477142D02*
X79652857Y-71524761D01*
X79605238Y-71572380D01*
X79557619Y-71524761D01*
X79605238Y-71477142D01*
X79605238Y-71572380D01*
X80033809Y-70667619D02*
X80081428Y-70620000D01*
X80176666Y-70572380D01*
X80414761Y-70572380D01*
X80510000Y-70620000D01*
X80557619Y-70667619D01*
X80605238Y-70762857D01*
X80605238Y-70858095D01*
X80557619Y-71000952D01*
X79986190Y-71572380D01*
X80605238Y-71572380D01*
X81033809Y-71572380D02*
X81033809Y-70572380D01*
X81129047Y-71191428D02*
X81414761Y-71572380D01*
X81414761Y-70905714D02*
X81033809Y-71286666D01*
%TO.C,C0*%
X98933333Y-120372142D02*
X98885714Y-120419761D01*
X98742857Y-120467380D01*
X98647619Y-120467380D01*
X98504761Y-120419761D01*
X98409523Y-120324523D01*
X98361904Y-120229285D01*
X98314285Y-120038809D01*
X98314285Y-119895952D01*
X98361904Y-119705476D01*
X98409523Y-119610238D01*
X98504761Y-119515000D01*
X98647619Y-119467380D01*
X98742857Y-119467380D01*
X98885714Y-119515000D01*
X98933333Y-119562619D01*
X99552380Y-119467380D02*
X99647619Y-119467380D01*
X99742857Y-119515000D01*
X99790476Y-119562619D01*
X99838095Y-119657857D01*
X99885714Y-119848333D01*
X99885714Y-120086428D01*
X99838095Y-120276904D01*
X99790476Y-120372142D01*
X99742857Y-120419761D01*
X99647619Y-120467380D01*
X99552380Y-120467380D01*
X99457142Y-120419761D01*
X99409523Y-120372142D01*
X99361904Y-120276904D01*
X99314285Y-120086428D01*
X99314285Y-119848333D01*
X99361904Y-119657857D01*
X99409523Y-119562619D01*
X99457142Y-119515000D01*
X99552380Y-119467380D01*
%TO.C,R2*%
X76033333Y-109842380D02*
X75700000Y-109366190D01*
X75461904Y-109842380D02*
X75461904Y-108842380D01*
X75842857Y-108842380D01*
X75938095Y-108890000D01*
X75985714Y-108937619D01*
X76033333Y-109032857D01*
X76033333Y-109175714D01*
X75985714Y-109270952D01*
X75938095Y-109318571D01*
X75842857Y-109366190D01*
X75461904Y-109366190D01*
X76414285Y-108937619D02*
X76461904Y-108890000D01*
X76557142Y-108842380D01*
X76795238Y-108842380D01*
X76890476Y-108890000D01*
X76938095Y-108937619D01*
X76985714Y-109032857D01*
X76985714Y-109128095D01*
X76938095Y-109270952D01*
X76366666Y-109842380D01*
X76985714Y-109842380D01*
X79081428Y-111545714D02*
X79081428Y-112212380D01*
X78843333Y-111164761D02*
X78605237Y-111879047D01*
X79224285Y-111879047D01*
X79509999Y-111212380D02*
X80176666Y-111212380D01*
X79748094Y-112212380D01*
X80748094Y-111212380D02*
X80843333Y-111212380D01*
X80938571Y-111260000D01*
X80986190Y-111307619D01*
X81033809Y-111402857D01*
X81081428Y-111593333D01*
X81081428Y-111831428D01*
X81033809Y-112021904D01*
X80986190Y-112117142D01*
X80938571Y-112164761D01*
X80843333Y-112212380D01*
X80748094Y-112212380D01*
X80652856Y-112164761D01*
X80605237Y-112117142D01*
X80557618Y-112021904D01*
X80509999Y-111831428D01*
X80509999Y-111593333D01*
X80557618Y-111402857D01*
X80605237Y-111307619D01*
X80652856Y-111260000D01*
X80748094Y-111212380D01*
D13*
%TO.C,R9*%
X76300000Y-116840000D02*
X76370000Y-116840000D01*
X76300000Y-116840000D02*
G75*
G03*
X76300000Y-116840000I-1370000J0D01*
G01*
%TO.C,U4*%
X164715000Y-129925000D02*
X195965000Y-129925000D01*
X195965000Y-129925000D02*
X195965000Y-98675000D01*
X164715000Y-99675000D02*
X164715000Y-129925000D01*
X195965000Y-98675000D02*
X181340000Y-98675000D01*
X179340000Y-98675000D02*
X165715000Y-98675000D01*
X165715000Y-98675000D02*
X164715000Y-99675000D01*
%TO.C,R1*%
X76300000Y-106680000D02*
X76370000Y-106680000D01*
X76300000Y-106680000D02*
G75*
G03*
X76300000Y-106680000I-1370000J0D01*
G01*
%TO.C,R4*%
X76300000Y-91440000D02*
X76370000Y-91440000D01*
X76300000Y-91440000D02*
G75*
G03*
X76300000Y-91440000I-1370000J0D01*
G01*
%TO.C,R5*%
X76300000Y-96520000D02*
X76370000Y-96520000D01*
X76300000Y-96520000D02*
G75*
G03*
X76300000Y-96520000I-1370000J0D01*
G01*
%TO.C,R0*%
X76300000Y-101600000D02*
X76370000Y-101600000D01*
X76300000Y-101600000D02*
G75*
G03*
X76300000Y-101600000I-1370000J0D01*
G01*
%TO.C,U2*%
X164715000Y-91825000D02*
X195965000Y-91825000D01*
X165715000Y-60575000D02*
X164715000Y-61575000D01*
X164715000Y-61575000D02*
X164715000Y-91825000D01*
X179340000Y-60575000D02*
X165715000Y-60575000D01*
X195965000Y-60575000D02*
X181340000Y-60575000D01*
X195965000Y-91825000D02*
X195965000Y-60575000D01*
%TO.C,C1*%
X142010000Y-93560000D02*
X142010000Y-93545000D01*
X142010000Y-95685000D02*
X137470000Y-95685000D01*
X142010000Y-95685000D02*
X142010000Y-95670000D01*
X137470000Y-93560000D02*
X137470000Y-93545000D01*
X137470000Y-95685000D02*
X137470000Y-95670000D01*
X142010000Y-93545000D02*
X137470000Y-93545000D01*
%TO.C,C4*%
X175570000Y-131660000D02*
X175570000Y-131645000D01*
X180110000Y-133785000D02*
X180110000Y-133770000D01*
X180110000Y-131660000D02*
X180110000Y-131645000D01*
X175570000Y-133785000D02*
X175570000Y-133770000D01*
X180110000Y-133785000D02*
X175570000Y-133785000D01*
X180110000Y-131645000D02*
X175570000Y-131645000D01*
D14*
%TO.C,J2*%
X69855000Y-103480000D02*
X69855000Y-103480000D01*
D15*
X52885000Y-83660000D02*
X69185000Y-83660000D01*
X69185000Y-114460000D02*
X52885000Y-114460000D01*
X52885000Y-114460000D02*
X52885000Y-83660000D01*
D14*
X69855000Y-103280000D02*
X69855000Y-103280000D01*
D15*
X69185000Y-83660000D02*
X69185000Y-114460000D01*
D14*
X69855000Y-103280000D02*
G75*
G03*
X69855000Y-103480000I0J-100000D01*
G01*
X69855000Y-103480000D02*
G75*
G03*
X69855000Y-103280000I0J100000D01*
G01*
D13*
%TO.C,R3*%
X76300000Y-86360000D02*
X76370000Y-86360000D01*
X76300000Y-86360000D02*
G75*
G03*
X76300000Y-86360000I-1370000J0D01*
G01*
%TO.C,C3*%
X142010000Y-133785000D02*
X142010000Y-133770000D01*
X137470000Y-131660000D02*
X137470000Y-131645000D01*
X142010000Y-131645000D02*
X137470000Y-131645000D01*
X142010000Y-131660000D02*
X142010000Y-131645000D01*
X142010000Y-133785000D02*
X137470000Y-133785000D01*
X137470000Y-133785000D02*
X137470000Y-133770000D01*
%TO.C,J1*%
X90110000Y-67250000D02*
X90110000Y-72450000D01*
X101600000Y-67250000D02*
X102930000Y-67250000D01*
X100330000Y-69850000D02*
X102930000Y-69850000D01*
X100330000Y-67250000D02*
X90110000Y-67250000D01*
X102930000Y-72450000D02*
X90110000Y-72450000D01*
X100330000Y-67250000D02*
X100330000Y-69850000D01*
X102930000Y-69850000D02*
X102930000Y-72450000D01*
X102930000Y-67250000D02*
X102930000Y-68580000D01*
%TO.C,C5*%
X98830000Y-77035000D02*
X98830000Y-77050000D01*
X94290000Y-79175000D02*
X98830000Y-79175000D01*
X98830000Y-79160000D02*
X98830000Y-79175000D01*
X94290000Y-79160000D02*
X94290000Y-79175000D01*
X94290000Y-77035000D02*
X98830000Y-77035000D01*
X94290000Y-77035000D02*
X94290000Y-77050000D01*
%TO.C,U1*%
X157865000Y-60575000D02*
X143240000Y-60575000D01*
X157865000Y-91825000D02*
X157865000Y-60575000D01*
X127615000Y-60575000D02*
X126615000Y-61575000D01*
X141240000Y-60575000D02*
X127615000Y-60575000D01*
X126615000Y-91825000D02*
X157865000Y-91825000D01*
X126615000Y-61575000D02*
X126615000Y-91825000D01*
%TO.C,R7*%
X76300000Y-76200000D02*
X76370000Y-76200000D01*
X76300000Y-76200000D02*
G75*
G03*
X76300000Y-76200000I-1370000J0D01*
G01*
%TO.C,J0*%
X167700000Y-140950000D02*
X168100000Y-140950000D01*
X104070000Y-140950000D02*
X103670000Y-140950000D01*
X167700000Y-144780000D02*
X167700000Y-140950000D01*
X104070000Y-144780000D02*
X104070000Y-140950000D01*
%TO.C,U0*%
X100600000Y-80950000D02*
X84475000Y-80950000D01*
X83475000Y-117170000D02*
X119725000Y-117170000D01*
X119725000Y-80950000D02*
X102600000Y-80950000D01*
X83475000Y-81950000D02*
X83475000Y-117170000D01*
X119725000Y-117170000D02*
X119725000Y-80950000D01*
X84475000Y-80950000D02*
X83475000Y-81950000D01*
%TO.C,R10*%
X76300000Y-121920000D02*
X76370000Y-121920000D01*
X76300000Y-121920000D02*
G75*
G03*
X76300000Y-121920000I-1370000J0D01*
G01*
%TO.C,U3*%
X127615000Y-98675000D02*
X126615000Y-99675000D01*
X157865000Y-129925000D02*
X157865000Y-98675000D01*
X141240000Y-98675000D02*
X127615000Y-98675000D01*
X126615000Y-99675000D02*
X126615000Y-129925000D01*
X126615000Y-129925000D02*
X157865000Y-129925000D01*
X157865000Y-98675000D02*
X143240000Y-98675000D01*
%TO.C,C2*%
X180110000Y-93545000D02*
X175570000Y-93545000D01*
X180110000Y-95685000D02*
X175570000Y-95685000D01*
X180110000Y-95685000D02*
X180110000Y-95670000D01*
X175570000Y-93560000D02*
X175570000Y-93545000D01*
X180110000Y-93560000D02*
X180110000Y-93545000D01*
X175570000Y-95685000D02*
X175570000Y-95670000D01*
%TO.C,X0*%
X107850000Y-75030000D02*
X120000000Y-75030000D01*
X120000000Y-62130000D02*
X108600000Y-62130000D01*
X120750000Y-74280000D02*
X120750000Y-62880000D01*
X107850000Y-62880000D02*
X107850000Y-75030000D01*
X108600000Y-62130000D02*
G75*
G03*
X107850000Y-62880000I0J-750000D01*
G01*
X120750000Y-62880000D02*
G75*
G03*
X120000000Y-62130000I-750000J0D01*
G01*
X120000000Y-75030000D02*
G75*
G03*
X120750000Y-74280000I0J750000D01*
G01*
%TO.C,R8*%
X76300000Y-81280000D02*
X76370000Y-81280000D01*
X76300000Y-81280000D02*
G75*
G03*
X76300000Y-81280000I-1370000J0D01*
G01*
%TO.C,R6*%
X76300000Y-71120000D02*
X76370000Y-71120000D01*
X76300000Y-71120000D02*
G75*
G03*
X76300000Y-71120000I-1370000J0D01*
G01*
%TO.C,C0*%
X101370000Y-121070000D02*
X101370000Y-121085000D01*
X101370000Y-118945000D02*
X101370000Y-118960000D01*
X96830000Y-121085000D02*
X101370000Y-121085000D01*
X96830000Y-121070000D02*
X96830000Y-121085000D01*
X96830000Y-118945000D02*
X101370000Y-118945000D01*
X96830000Y-118945000D02*
X96830000Y-118960000D01*
%TO.C,R2*%
X76300000Y-111760000D02*
X76370000Y-111760000D01*
X76300000Y-111760000D02*
G75*
G03*
X76300000Y-111760000I-1370000J0D01*
G01*
%TD*%
M02*
