M48
; DRILL file {KiCad (6.0.4)} date Wed Mar  8 18:50:16 2023
; FORMAT={-:-/ absolute / metric / decimal}
; #@! TF.CreationDate,2023-03-08T18:50:16+01:00
; #@! TF.GenerationSoftware,Kicad,Pcbnew,(6.0.4)
; #@! TF.FileFunction,Plated,1,2,PTH
FMAT,2
METRIC
; #@! TA.AperFunction,Plated,PTH,ViaDrill
T1C0.400
; #@! TA.AperFunction,Plated,PTH,ComponentDrill
T2C0.800
; #@! TA.AperFunction,Plated,PTH,ComponentDrill
T3C1.000
; #@! TA.AperFunction,Plated,PTH,ComponentDrill
T4C3.200
%
G90
G05
T1
X60.96Y-58.42
X60.96Y-66.04
X60.96Y-73.66
X60.96Y-81.28
X60.96Y-91.44
X60.96Y-106.68
X60.96Y-119.38
X60.96Y-127.0
X68.58Y-58.42
X68.58Y-91.44
X68.58Y-99.06
X68.58Y-106.68
X68.58Y-112.395
X68.58Y-127.0
X71.12Y-114.935
X71.12Y-118.745
X72.39Y-101.6
X72.39Y-109.22
X73.66Y-73.66
X73.66Y-78.74
X73.66Y-88.9
X73.66Y-93.98
X73.66Y-114.3
X74.295Y-119.38
X74.93Y-99.06
X76.2Y-58.42
X76.2Y-127.0
X77.47Y-78.74
X78.74Y-83.82
X78.74Y-88.9
X78.74Y-93.98
X78.74Y-114.3
X78.74Y-119.38
X80.01Y-73.025
X81.28Y-78.74
X81.28Y-82.55
X81.28Y-109.22
X81.915Y-100.33
X81.915Y-104.775
X83.82Y-58.42
X83.82Y-85.725
X83.82Y-88.9
X83.82Y-127.0
X85.725Y-78.74
X86.36Y-83.82
X88.265Y-81.915
X88.9Y-74.93
X90.17Y-90.17
X90.805Y-105.41
X91.44Y-58.42
X91.44Y-66.04
X91.44Y-74.93
X91.44Y-81.28
X91.44Y-99.06
X91.44Y-127.0
X92.71Y-100.965
X93.98Y-106.68
X95.25Y-95.25
X95.25Y-109.855
X95.885Y-104.775
X96.52Y-66.04
X96.52Y-74.93
X96.52Y-81.28
X97.155Y-97.155
X97.264Y-116.112
X97.294Y-109.463
X98.425Y-92.075
X99.033Y-123.015
X99.06Y-58.42
X100.33Y-93.345
X100.33Y-103.505
X100.33Y-108.585
X101.6Y-66.04
X101.6Y-74.93
X102.87Y-93.345
X102.87Y-101.6
X102.87Y-106.68
X103.448Y-88.858
X103.505Y-122.555
X104.14Y-74.93
X104.14Y-78.74
X104.14Y-81.915
X104.14Y-100.33
X104.14Y-104.775
X104.426Y-109.42
X104.775Y-118.11
X105.41Y-67.945
X105.41Y-71.12
X106.68Y-58.42
X106.68Y-74.93
X106.68Y-97.79
X106.68Y-102.87
X107.315Y-79.375
X108.585Y-80.645
X108.585Y-95.885
X109.22Y-100.33
X109.22Y-118.11
X110.49Y-76.2
X110.49Y-132.715
X111.125Y-98.425
X111.125Y-108.585
X111.76Y-77.47
X113.03Y-132.08
X113.561Y-133.945
X113.665Y-73.025
X114.3Y-58.42
X114.3Y-118.11
X114.935Y-74.295
X115.021Y-82.622
X115.465Y-138.229
X115.57Y-132.08
X116.84Y-69.215
X116.84Y-114.3
X117.008Y-139.774
X118.11Y-85.09
X118.11Y-136.525
X118.144Y-138.308
X119.38Y-69.85
X119.38Y-118.11
X119.38Y-137.795
X120.015Y-133.985
X120.65Y-88.9
X120.65Y-139.7
X121.304Y-133.279
X121.92Y-58.42
X121.92Y-79.375
X121.92Y-114.3
X122.555Y-67.31
X122.555Y-85.09
X122.555Y-132.08
X123.19Y-111.76
X123.19Y-114.3
X123.19Y-118.11
X123.19Y-124.46
X123.19Y-136.525
X123.78Y-107.716
X124.457Y-139.806
X124.46Y-114.3
X124.46Y-118.11
X125.095Y-76.835
X125.095Y-132.08
X125.095Y-133.985
X125.355Y-96.593
X125.73Y-88.9
X125.952Y-109.782
X126.005Y-139.89
X126.062Y-97.3
X126.365Y-63.5
X126.54Y-101.053
X126.562Y-72.156
X126.63Y-76.157
X126.825Y-69.114
X127.0Y-124.46
X127.275Y-70.805
X127.635Y-119.38
X128.217Y-140.399
X128.28Y-107.296
X129.359Y-93.43
X129.54Y-58.42
X129.54Y-132.08
X130.867Y-85.307
X131.008Y-131.583
X131.445Y-137.16
X132.391Y-91.327
X133.615Y-120.872
X134.234Y-122.493
X134.601Y-90.877
X134.921Y-75.038
X134.993Y-115.056
X135.61Y-97.576
X136.832Y-136.854
X136.845Y-78.422
X137.16Y-58.42
X138.367Y-138.645
X139.193Y-80.244
X140.347Y-136.028
X140.911Y-140.431
X141.126Y-96.991
X141.482Y-108.167
X142.515Y-68.799
X143.037Y-128.367
X144.159Y-96.182
X144.78Y-58.42
X145.045Y-140.317
X146.398Y-138.967
X147.041Y-129.836
X147.409Y-139.224
X147.465Y-91.418
X147.545Y-95.667
X147.864Y-81.632
X148.627Y-129.111
X148.632Y-134.375
X149.083Y-133.375
X150.514Y-94.243
X150.593Y-140.246
X150.751Y-89.969
X151.906Y-140.112
X152.4Y-58.42
X152.997Y-95.226
X153.568Y-139.47
X153.862Y-96.117
X155.326Y-87.682
X155.577Y-130.145
X155.889Y-127.32
X155.931Y-136.909
X156.617Y-139.196
X157.042Y-124.944
X157.784Y-124.195
X157.961Y-94.473
X158.033Y-67.532
X158.115Y-121.92
X158.379Y-108.93
X158.718Y-137.078
X158.969Y-112.009
X159.196Y-121.262
X159.543Y-74.915
X160.02Y-58.42
X160.219Y-120.487
X160.549Y-88.007
X160.995Y-115.787
X161.553Y-104.666
X162.347Y-80.534
X162.518Y-113.252
X163.084Y-79.655
X163.507Y-70.364
X163.816Y-89.18
X164.117Y-73.66
X164.317Y-110.571
X164.507Y-77.247
X164.533Y-109.12
X164.655Y-114.763
X165.38Y-111.586
X166.351Y-113.252
X167.64Y-58.42
X169.697Y-96.482
X170.893Y-77.47
X171.177Y-95.86
X171.922Y-99.64
X172.436Y-117.275
X172.634Y-97.297
X175.26Y-58.42
X175.416Y-81.28
X175.535Y-98.022
X178.753Y-99.243
X178.814Y-93.397
X179.764Y-78.37
X181.08Y-128.242
X181.099Y-77.629
X181.12Y-90.31
X182.39Y-115.371
X182.822Y-95.844
X182.88Y-58.42
X182.88Y-132.08
X183.187Y-81.038
X184.008Y-99.521
X187.827Y-120.576
X190.5Y-58.42
X190.5Y-132.08
X193.86Y-88.707
X194.504Y-98.752
X194.531Y-95.991
X194.881Y-107.766
X194.986Y-97.505
X198.12Y-58.42
X198.12Y-66.04
X198.12Y-73.66
X198.12Y-81.28
X198.12Y-124.46
X198.12Y-132.08
T2
X74.93Y-71.12
X74.93Y-76.2
X74.93Y-81.28
X74.93Y-86.36
X74.93Y-91.44
X74.93Y-96.52
X74.93Y-101.6
X74.93Y-106.68
X74.93Y-111.76
X74.93Y-116.84
X74.93Y-121.92
X77.47Y-71.12
X77.47Y-76.2
X77.47Y-81.28
X77.47Y-86.36
X77.47Y-91.44
X77.47Y-96.52
X77.47Y-101.6
X77.47Y-106.68
X77.47Y-111.76
X77.47Y-116.84
X77.47Y-121.92
X86.36Y-86.36
X86.36Y-88.9
X86.36Y-91.44
X86.36Y-93.98
X86.36Y-96.52
X86.36Y-99.06
X86.36Y-101.6
X86.36Y-104.14
X86.36Y-106.68
X86.36Y-109.22
X86.36Y-111.76
X88.9Y-83.82
X88.9Y-86.36
X88.9Y-88.9
X88.9Y-91.44
X88.9Y-93.98
X88.9Y-96.52
X88.9Y-99.06
X88.9Y-101.6
X88.9Y-104.14
X88.9Y-106.68
X88.9Y-109.22
X88.9Y-111.76
X88.9Y-114.3
X91.44Y-83.82
X91.44Y-86.36
X91.44Y-111.76
X91.44Y-114.3
X93.98Y-83.82
X93.98Y-86.36
X93.98Y-111.76
X93.98Y-114.3
X94.06Y-78.105
X96.52Y-83.82
X96.52Y-86.36
X96.52Y-111.76
X96.52Y-114.3
X96.6Y-120.015
X99.06Y-78.105
X99.06Y-83.82
X99.06Y-86.36
X99.06Y-111.76
X99.06Y-114.3
X101.6Y-83.82
X101.6Y-86.36
X101.6Y-111.76
X101.6Y-114.3
X101.6Y-120.015
X104.14Y-83.82
X104.14Y-86.36
X104.14Y-111.76
X104.14Y-114.3
X106.68Y-83.82
X106.68Y-86.36
X106.68Y-111.76
X106.68Y-114.3
X109.22Y-83.82
X109.22Y-86.36
X109.22Y-111.76
X109.22Y-114.3
X110.49Y-64.77
X110.49Y-72.39
X111.76Y-83.82
X111.76Y-86.36
X111.76Y-111.76
X111.76Y-114.3
X114.3Y-83.82
X114.3Y-86.36
X114.3Y-88.9
X114.3Y-91.44
X114.3Y-93.98
X114.3Y-96.52
X114.3Y-99.06
X114.3Y-101.6
X114.3Y-104.14
X114.3Y-106.68
X114.3Y-109.22
X114.3Y-111.76
X114.3Y-114.3
X116.84Y-86.36
X116.84Y-88.9
X116.84Y-91.44
X116.84Y-93.98
X116.84Y-96.52
X116.84Y-99.06
X116.84Y-101.6
X116.84Y-104.14
X116.84Y-106.68
X116.84Y-109.22
X116.84Y-111.76
X118.11Y-64.77
X118.11Y-72.39
X129.54Y-66.04
X129.54Y-68.58
X129.54Y-71.12
X129.54Y-73.66
X129.54Y-76.2
X129.54Y-78.74
X129.54Y-81.28
X129.54Y-83.82
X129.54Y-86.36
X129.54Y-104.14
X129.54Y-106.68
X129.54Y-109.22
X129.54Y-111.76
X129.54Y-114.3
X129.54Y-116.84
X129.54Y-119.38
X129.54Y-121.92
X129.54Y-124.46
X132.08Y-63.5
X132.08Y-66.04
X132.08Y-68.58
X132.08Y-71.12
X132.08Y-73.66
X132.08Y-76.2
X132.08Y-78.74
X132.08Y-81.28
X132.08Y-83.82
X132.08Y-86.36
X132.08Y-88.9
X132.08Y-101.6
X132.08Y-104.14
X132.08Y-106.68
X132.08Y-109.22
X132.08Y-111.76
X132.08Y-114.3
X132.08Y-116.84
X132.08Y-119.38
X132.08Y-121.92
X132.08Y-124.46
X132.08Y-127.0
X134.62Y-63.5
X134.62Y-66.04
X134.62Y-86.36
X134.62Y-88.9
X134.62Y-101.6
X134.62Y-104.14
X134.62Y-124.46
X134.62Y-127.0
X137.16Y-63.5
X137.16Y-66.04
X137.16Y-86.36
X137.16Y-88.9
X137.16Y-101.6
X137.16Y-104.14
X137.16Y-124.46
X137.16Y-127.0
X137.24Y-94.615
X137.24Y-132.715
X139.7Y-63.5
X139.7Y-66.04
X139.7Y-86.36
X139.7Y-88.9
X139.7Y-101.6
X139.7Y-104.14
X139.7Y-124.46
X139.7Y-127.0
X142.24Y-63.5
X142.24Y-66.04
X142.24Y-86.36
X142.24Y-88.9
X142.24Y-94.615
X142.24Y-101.6
X142.24Y-104.14
X142.24Y-124.46
X142.24Y-127.0
X142.24Y-132.715
X144.78Y-63.5
X144.78Y-66.04
X144.78Y-86.36
X144.78Y-88.9
X144.78Y-101.6
X144.78Y-104.14
X144.78Y-124.46
X144.78Y-127.0
X147.32Y-63.5
X147.32Y-66.04
X147.32Y-86.36
X147.32Y-88.9
X147.32Y-101.6
X147.32Y-104.14
X147.32Y-124.46
X147.32Y-127.0
X149.86Y-63.5
X149.86Y-66.04
X149.86Y-86.36
X149.86Y-88.9
X149.86Y-101.6
X149.86Y-104.14
X149.86Y-124.46
X149.86Y-127.0
X152.4Y-63.5
X152.4Y-66.04
X152.4Y-68.58
X152.4Y-71.12
X152.4Y-73.66
X152.4Y-76.2
X152.4Y-78.74
X152.4Y-81.28
X152.4Y-83.82
X152.4Y-86.36
X152.4Y-88.9
X152.4Y-101.6
X152.4Y-104.14
X152.4Y-106.68
X152.4Y-109.22
X152.4Y-111.76
X152.4Y-114.3
X152.4Y-116.84
X152.4Y-119.38
X152.4Y-121.92
X152.4Y-124.46
X152.4Y-127.0
X154.94Y-66.04
X154.94Y-68.58
X154.94Y-71.12
X154.94Y-73.66
X154.94Y-76.2
X154.94Y-78.74
X154.94Y-81.28
X154.94Y-83.82
X154.94Y-86.36
X154.94Y-104.14
X154.94Y-106.68
X154.94Y-109.22
X154.94Y-111.76
X154.94Y-114.3
X154.94Y-116.84
X154.94Y-119.38
X154.94Y-121.92
X154.94Y-124.46
X167.64Y-66.04
X167.64Y-68.58
X167.64Y-71.12
X167.64Y-73.66
X167.64Y-76.2
X167.64Y-78.74
X167.64Y-81.28
X167.64Y-83.82
X167.64Y-86.36
X167.64Y-104.14
X167.64Y-106.68
X167.64Y-109.22
X167.64Y-111.76
X167.64Y-114.3
X167.64Y-116.84
X167.64Y-119.38
X167.64Y-121.92
X167.64Y-124.46
X170.18Y-63.5
X170.18Y-66.04
X170.18Y-68.58
X170.18Y-71.12
X170.18Y-73.66
X170.18Y-76.2
X170.18Y-78.74
X170.18Y-81.28
X170.18Y-83.82
X170.18Y-86.36
X170.18Y-88.9
X170.18Y-101.6
X170.18Y-104.14
X170.18Y-106.68
X170.18Y-109.22
X170.18Y-111.76
X170.18Y-114.3
X170.18Y-116.84
X170.18Y-119.38
X170.18Y-121.92
X170.18Y-124.46
X170.18Y-127.0
X172.72Y-63.5
X172.72Y-66.04
X172.72Y-86.36
X172.72Y-88.9
X172.72Y-101.6
X172.72Y-104.14
X172.72Y-124.46
X172.72Y-127.0
X175.26Y-63.5
X175.26Y-66.04
X175.26Y-86.36
X175.26Y-88.9
X175.26Y-101.6
X175.26Y-104.14
X175.26Y-124.46
X175.26Y-127.0
X175.34Y-94.615
X175.34Y-132.715
X177.8Y-63.5
X177.8Y-66.04
X177.8Y-86.36
X177.8Y-88.9
X177.8Y-101.6
X177.8Y-104.14
X177.8Y-124.46
X177.8Y-127.0
X180.34Y-63.5
X180.34Y-66.04
X180.34Y-86.36
X180.34Y-88.9
X180.34Y-94.615
X180.34Y-101.6
X180.34Y-104.14
X180.34Y-124.46
X180.34Y-127.0
X180.34Y-132.715
X182.88Y-63.5
X182.88Y-66.04
X182.88Y-86.36
X182.88Y-88.9
X182.88Y-101.6
X182.88Y-104.14
X182.88Y-124.46
X182.88Y-127.0
X185.42Y-63.5
X185.42Y-66.04
X185.42Y-86.36
X185.42Y-88.9
X185.42Y-101.6
X185.42Y-104.14
X185.42Y-124.46
X185.42Y-127.0
X187.96Y-63.5
X187.96Y-66.04
X187.96Y-86.36
X187.96Y-88.9
X187.96Y-101.6
X187.96Y-104.14
X187.96Y-124.46
X187.96Y-127.0
X190.5Y-63.5
X190.5Y-66.04
X190.5Y-68.58
X190.5Y-71.12
X190.5Y-73.66
X190.5Y-76.2
X190.5Y-78.74
X190.5Y-81.28
X190.5Y-83.82
X190.5Y-86.36
X190.5Y-88.9
X190.5Y-101.6
X190.5Y-104.14
X190.5Y-106.68
X190.5Y-109.22
X190.5Y-111.76
X190.5Y-114.3
X190.5Y-116.84
X190.5Y-119.38
X190.5Y-121.92
X190.5Y-124.46
X190.5Y-127.0
X193.04Y-66.04
X193.04Y-68.58
X193.04Y-71.12
X193.04Y-73.66
X193.04Y-76.2
X193.04Y-78.74
X193.04Y-81.28
X193.04Y-83.82
X193.04Y-86.36
X193.04Y-104.14
X193.04Y-106.68
X193.04Y-109.22
X193.04Y-111.76
X193.04Y-114.3
X193.04Y-116.84
X193.04Y-119.38
X193.04Y-121.92
X193.04Y-124.46
T3
X61.775Y-94.26
X61.775Y-96.54
X61.775Y-98.82
X61.775Y-101.1
X61.775Y-103.38
X64.315Y-95.4
X64.315Y-97.68
X64.315Y-99.96
X64.315Y-102.24
X64.315Y-104.52
X66.855Y-94.26
X66.855Y-96.54
X66.855Y-98.82
X66.855Y-101.1
X66.855Y-103.38
X91.44Y-68.58
X91.44Y-71.12
X93.98Y-68.58
X93.98Y-71.12
X96.52Y-68.58
X96.52Y-71.12
X99.06Y-68.58
X99.06Y-71.12
X101.6Y-68.58
X101.6Y-71.12
T4
X64.315Y-86.56
X64.315Y-111.56
T0
M30
