%TF.GenerationSoftware,KiCad,Pcbnew,(6.0.4)*%
%TF.CreationDate,2023-03-08T18:50:13+01:00*%
%TF.ProjectId,65C816_SBC_VGA_ALT,36354338-3136-45f5-9342-435f5647415f,rev?*%
%TF.SameCoordinates,Original*%
%TF.FileFunction,Soldermask,Bot*%
%TF.FilePolarity,Negative*%
%FSLAX46Y46*%
G04 Gerber Fmt 4.6, Leading zero omitted, Abs format (unit mm)*
G04 Created by KiCad (PCBNEW (6.0.4)) date 2023-03-08 18:50:13*
%MOMM*%
%LPD*%
G01*
G04 APERTURE LIST*
%ADD10C,1.600000*%
%ADD11O,1.600000X1.600000*%
%ADD12R,1.422400X1.422400*%
%ADD13C,1.422400*%
%ADD14C,1.500000*%
%ADD15C,4.800000*%
%ADD16R,1.700000X1.700000*%
%ADD17O,1.700000X1.700000*%
%ADD18R,1.780000X3.810000*%
%ADD19R,1.600000X1.600000*%
G04 APERTURE END LIST*
D10*
%TO.C,R9*%
X74930000Y-116840000D03*
D11*
X77470000Y-116840000D03*
%TD*%
D12*
%TO.C,U4*%
X180340000Y-101600000D03*
D13*
X180340000Y-104140000D03*
X177800000Y-101600000D03*
X177800000Y-104140000D03*
X175260000Y-101600000D03*
X175260000Y-104140000D03*
X172720000Y-101600000D03*
X172720000Y-104140000D03*
X170180000Y-101600000D03*
X167640000Y-104140000D03*
X170180000Y-104140000D03*
X167640000Y-106680000D03*
X170180000Y-106680000D03*
X167640000Y-109220000D03*
X170180000Y-109220000D03*
X167640000Y-111760000D03*
X170180000Y-111760000D03*
X167640000Y-114300000D03*
X170180000Y-114300000D03*
X167640000Y-116840000D03*
X170180000Y-116840000D03*
X167640000Y-119380000D03*
X170180000Y-119380000D03*
X167640000Y-121920000D03*
X170180000Y-121920000D03*
X167640000Y-124460000D03*
X170180000Y-127000000D03*
X170180000Y-124460000D03*
X172720000Y-127000000D03*
X172720000Y-124460000D03*
X175260000Y-127000000D03*
X175260000Y-124460000D03*
X177800000Y-127000000D03*
X177800000Y-124460000D03*
X180340000Y-127000000D03*
X180340000Y-124460000D03*
X182880000Y-127000000D03*
X182880000Y-124460000D03*
X185420000Y-127000000D03*
X185420000Y-124460000D03*
X187960000Y-127000000D03*
X187960000Y-124460000D03*
X190500000Y-127000000D03*
X193040000Y-124460000D03*
X190500000Y-124460000D03*
X193040000Y-121920000D03*
X190500000Y-121920000D03*
X193040000Y-119380000D03*
X190500000Y-119380000D03*
X193040000Y-116840000D03*
X190500000Y-116840000D03*
X193040000Y-114300000D03*
X190500000Y-114300000D03*
X193040000Y-111760000D03*
X190500000Y-111760000D03*
X193040000Y-109220000D03*
X190500000Y-109220000D03*
X193040000Y-106680000D03*
X190500000Y-106680000D03*
X193040000Y-104140000D03*
X190500000Y-101600000D03*
X190500000Y-104140000D03*
X187960000Y-101600000D03*
X187960000Y-104140000D03*
X185420000Y-101600000D03*
X185420000Y-104140000D03*
X182880000Y-101600000D03*
X182880000Y-104140000D03*
%TD*%
D10*
%TO.C,R1*%
X74930000Y-106680000D03*
D11*
X77470000Y-106680000D03*
%TD*%
D10*
%TO.C,R4*%
X74930000Y-91440000D03*
D11*
X77470000Y-91440000D03*
%TD*%
D10*
%TO.C,R5*%
X74930000Y-96520000D03*
D11*
X77470000Y-96520000D03*
%TD*%
D10*
%TO.C,R0*%
X74930000Y-101600000D03*
D11*
X77470000Y-101600000D03*
%TD*%
D12*
%TO.C,U2*%
X180340000Y-63500000D03*
D13*
X180340000Y-66040000D03*
X177800000Y-63500000D03*
X177800000Y-66040000D03*
X175260000Y-63500000D03*
X175260000Y-66040000D03*
X172720000Y-63500000D03*
X172720000Y-66040000D03*
X170180000Y-63500000D03*
X167640000Y-66040000D03*
X170180000Y-66040000D03*
X167640000Y-68580000D03*
X170180000Y-68580000D03*
X167640000Y-71120000D03*
X170180000Y-71120000D03*
X167640000Y-73660000D03*
X170180000Y-73660000D03*
X167640000Y-76200000D03*
X170180000Y-76200000D03*
X167640000Y-78740000D03*
X170180000Y-78740000D03*
X167640000Y-81280000D03*
X170180000Y-81280000D03*
X167640000Y-83820000D03*
X170180000Y-83820000D03*
X167640000Y-86360000D03*
X170180000Y-88900000D03*
X170180000Y-86360000D03*
X172720000Y-88900000D03*
X172720000Y-86360000D03*
X175260000Y-88900000D03*
X175260000Y-86360000D03*
X177800000Y-88900000D03*
X177800000Y-86360000D03*
X180340000Y-88900000D03*
X180340000Y-86360000D03*
X182880000Y-88900000D03*
X182880000Y-86360000D03*
X185420000Y-88900000D03*
X185420000Y-86360000D03*
X187960000Y-88900000D03*
X187960000Y-86360000D03*
X190500000Y-88900000D03*
X193040000Y-86360000D03*
X190500000Y-86360000D03*
X193040000Y-83820000D03*
X190500000Y-83820000D03*
X193040000Y-81280000D03*
X190500000Y-81280000D03*
X193040000Y-78740000D03*
X190500000Y-78740000D03*
X193040000Y-76200000D03*
X190500000Y-76200000D03*
X193040000Y-73660000D03*
X190500000Y-73660000D03*
X193040000Y-71120000D03*
X190500000Y-71120000D03*
X193040000Y-68580000D03*
X190500000Y-68580000D03*
X193040000Y-66040000D03*
X190500000Y-63500000D03*
X190500000Y-66040000D03*
X187960000Y-63500000D03*
X187960000Y-66040000D03*
X185420000Y-63500000D03*
X185420000Y-66040000D03*
X182880000Y-63500000D03*
X182880000Y-66040000D03*
%TD*%
D10*
%TO.C,C1*%
X142240000Y-94615000D03*
X137240000Y-94615000D03*
%TD*%
%TO.C,C4*%
X180340000Y-132715000D03*
X175340000Y-132715000D03*
%TD*%
D14*
%TO.C,J2*%
X66855000Y-103380000D03*
X66855000Y-101100000D03*
X66855000Y-98820000D03*
X66855000Y-96540000D03*
X66855000Y-94260000D03*
X64315000Y-104520000D03*
X64315000Y-102240000D03*
X64315000Y-99960000D03*
X64315000Y-97680000D03*
X64315000Y-95400000D03*
X61775000Y-103380000D03*
X61775000Y-101100000D03*
X61775000Y-98820000D03*
X61775000Y-96540000D03*
X61775000Y-94260000D03*
D15*
X64315000Y-111560000D03*
X64315000Y-86560000D03*
%TD*%
D10*
%TO.C,R3*%
X74930000Y-86360000D03*
D11*
X77470000Y-86360000D03*
%TD*%
D10*
%TO.C,C3*%
X142240000Y-132715000D03*
X137240000Y-132715000D03*
%TD*%
D16*
%TO.C,J1*%
X101600000Y-68580000D03*
D17*
X101600000Y-71120000D03*
X99060000Y-68580000D03*
X99060000Y-71120000D03*
X96520000Y-68580000D03*
X96520000Y-71120000D03*
X93980000Y-68580000D03*
X93980000Y-71120000D03*
X91440000Y-68580000D03*
X91440000Y-71120000D03*
%TD*%
D10*
%TO.C,C5*%
X94060000Y-78105000D03*
X99060000Y-78105000D03*
%TD*%
D12*
%TO.C,U1*%
X142240000Y-63500000D03*
D13*
X142240000Y-66040000D03*
X139700000Y-63500000D03*
X139700000Y-66040000D03*
X137160000Y-63500000D03*
X137160000Y-66040000D03*
X134620000Y-63500000D03*
X134620000Y-66040000D03*
X132080000Y-63500000D03*
X129540000Y-66040000D03*
X132080000Y-66040000D03*
X129540000Y-68580000D03*
X132080000Y-68580000D03*
X129540000Y-71120000D03*
X132080000Y-71120000D03*
X129540000Y-73660000D03*
X132080000Y-73660000D03*
X129540000Y-76200000D03*
X132080000Y-76200000D03*
X129540000Y-78740000D03*
X132080000Y-78740000D03*
X129540000Y-81280000D03*
X132080000Y-81280000D03*
X129540000Y-83820000D03*
X132080000Y-83820000D03*
X129540000Y-86360000D03*
X132080000Y-88900000D03*
X132080000Y-86360000D03*
X134620000Y-88900000D03*
X134620000Y-86360000D03*
X137160000Y-88900000D03*
X137160000Y-86360000D03*
X139700000Y-88900000D03*
X139700000Y-86360000D03*
X142240000Y-88900000D03*
X142240000Y-86360000D03*
X144780000Y-88900000D03*
X144780000Y-86360000D03*
X147320000Y-88900000D03*
X147320000Y-86360000D03*
X149860000Y-88900000D03*
X149860000Y-86360000D03*
X152400000Y-88900000D03*
X154940000Y-86360000D03*
X152400000Y-86360000D03*
X154940000Y-83820000D03*
X152400000Y-83820000D03*
X154940000Y-81280000D03*
X152400000Y-81280000D03*
X154940000Y-78740000D03*
X152400000Y-78740000D03*
X154940000Y-76200000D03*
X152400000Y-76200000D03*
X154940000Y-73660000D03*
X152400000Y-73660000D03*
X154940000Y-71120000D03*
X152400000Y-71120000D03*
X154940000Y-68580000D03*
X152400000Y-68580000D03*
X154940000Y-66040000D03*
X152400000Y-63500000D03*
X152400000Y-66040000D03*
X149860000Y-63500000D03*
X149860000Y-66040000D03*
X147320000Y-63500000D03*
X147320000Y-66040000D03*
X144780000Y-63500000D03*
X144780000Y-66040000D03*
%TD*%
D10*
%TO.C,R7*%
X74930000Y-76200000D03*
D11*
X77470000Y-76200000D03*
%TD*%
D18*
%TO.C,J0*%
X106680000Y-142875000D03*
X109220000Y-142875000D03*
X111760000Y-142875000D03*
X114300000Y-142875000D03*
X116840000Y-142875000D03*
X119380000Y-142875000D03*
X121920000Y-142875000D03*
X124460000Y-142875000D03*
X127000000Y-142875000D03*
X129540000Y-142875000D03*
X132080000Y-142875000D03*
X134620000Y-142875000D03*
X137160000Y-142875000D03*
X139700000Y-142875000D03*
X142240000Y-142875000D03*
X144780000Y-142875000D03*
X147320000Y-142875000D03*
X149860000Y-142875000D03*
X152400000Y-142875000D03*
X154940000Y-142875000D03*
X157480000Y-142875000D03*
X160020000Y-142875000D03*
X162560000Y-142875000D03*
X165100000Y-142875000D03*
%TD*%
D12*
%TO.C,U0*%
X101600000Y-83820000D03*
D13*
X101600000Y-86360000D03*
X99060000Y-83820000D03*
X99060000Y-86360000D03*
X96520000Y-83820000D03*
X96520000Y-86360000D03*
X93980000Y-83820000D03*
X93980000Y-86360000D03*
X91440000Y-83820000D03*
X91440000Y-86360000D03*
X88900000Y-83820000D03*
X86360000Y-86360000D03*
X88900000Y-86360000D03*
X86360000Y-88900000D03*
X88900000Y-88900000D03*
X86360000Y-91440000D03*
X88900000Y-91440000D03*
X86360000Y-93980000D03*
X88900000Y-93980000D03*
X86360000Y-96520000D03*
X88900000Y-96520000D03*
X86360000Y-99060000D03*
X88900000Y-99060000D03*
X86360000Y-101600000D03*
X88900000Y-101600000D03*
X86360000Y-104140000D03*
X88900000Y-104140000D03*
X86360000Y-106680000D03*
X88900000Y-106680000D03*
X86360000Y-109220000D03*
X88900000Y-109220000D03*
X86360000Y-111760000D03*
X88900000Y-114300000D03*
X88900000Y-111760000D03*
X91440000Y-114300000D03*
X91440000Y-111760000D03*
X93980000Y-114300000D03*
X93980000Y-111760000D03*
X96520000Y-114300000D03*
X96520000Y-111760000D03*
X99060000Y-114300000D03*
X99060000Y-111760000D03*
X101600000Y-114300000D03*
X101600000Y-111760000D03*
X104140000Y-114300000D03*
X104140000Y-111760000D03*
X106680000Y-114300000D03*
X106680000Y-111760000D03*
X109220000Y-114300000D03*
X109220000Y-111760000D03*
X111760000Y-114300000D03*
X111760000Y-111760000D03*
X114300000Y-114300000D03*
X116840000Y-111760000D03*
X114300000Y-111760000D03*
X116840000Y-109220000D03*
X114300000Y-109220000D03*
X116840000Y-106680000D03*
X114300000Y-106680000D03*
X116840000Y-104140000D03*
X114300000Y-104140000D03*
X116840000Y-101600000D03*
X114300000Y-101600000D03*
X116840000Y-99060000D03*
X114300000Y-99060000D03*
X116840000Y-96520000D03*
X114300000Y-96520000D03*
X116840000Y-93980000D03*
X114300000Y-93980000D03*
X116840000Y-91440000D03*
X114300000Y-91440000D03*
X116840000Y-88900000D03*
X114300000Y-88900000D03*
X116840000Y-86360000D03*
X114300000Y-83820000D03*
X114300000Y-86360000D03*
X111760000Y-83820000D03*
X111760000Y-86360000D03*
X109220000Y-83820000D03*
X109220000Y-86360000D03*
X106680000Y-83820000D03*
X106680000Y-86360000D03*
X104140000Y-83820000D03*
X104140000Y-86360000D03*
%TD*%
D10*
%TO.C,R10*%
X74930000Y-121920000D03*
D11*
X77470000Y-121920000D03*
%TD*%
D12*
%TO.C,U3*%
X142240000Y-101600000D03*
D13*
X142240000Y-104140000D03*
X139700000Y-101600000D03*
X139700000Y-104140000D03*
X137160000Y-101600000D03*
X137160000Y-104140000D03*
X134620000Y-101600000D03*
X134620000Y-104140000D03*
X132080000Y-101600000D03*
X129540000Y-104140000D03*
X132080000Y-104140000D03*
X129540000Y-106680000D03*
X132080000Y-106680000D03*
X129540000Y-109220000D03*
X132080000Y-109220000D03*
X129540000Y-111760000D03*
X132080000Y-111760000D03*
X129540000Y-114300000D03*
X132080000Y-114300000D03*
X129540000Y-116840000D03*
X132080000Y-116840000D03*
X129540000Y-119380000D03*
X132080000Y-119380000D03*
X129540000Y-121920000D03*
X132080000Y-121920000D03*
X129540000Y-124460000D03*
X132080000Y-127000000D03*
X132080000Y-124460000D03*
X134620000Y-127000000D03*
X134620000Y-124460000D03*
X137160000Y-127000000D03*
X137160000Y-124460000D03*
X139700000Y-127000000D03*
X139700000Y-124460000D03*
X142240000Y-127000000D03*
X142240000Y-124460000D03*
X144780000Y-127000000D03*
X144780000Y-124460000D03*
X147320000Y-127000000D03*
X147320000Y-124460000D03*
X149860000Y-127000000D03*
X149860000Y-124460000D03*
X152400000Y-127000000D03*
X154940000Y-124460000D03*
X152400000Y-124460000D03*
X154940000Y-121920000D03*
X152400000Y-121920000D03*
X154940000Y-119380000D03*
X152400000Y-119380000D03*
X154940000Y-116840000D03*
X152400000Y-116840000D03*
X154940000Y-114300000D03*
X152400000Y-114300000D03*
X154940000Y-111760000D03*
X152400000Y-111760000D03*
X154940000Y-109220000D03*
X152400000Y-109220000D03*
X154940000Y-106680000D03*
X152400000Y-106680000D03*
X154940000Y-104140000D03*
X152400000Y-101600000D03*
X152400000Y-104140000D03*
X149860000Y-101600000D03*
X149860000Y-104140000D03*
X147320000Y-101600000D03*
X147320000Y-104140000D03*
X144780000Y-101600000D03*
X144780000Y-104140000D03*
%TD*%
D10*
%TO.C,C2*%
X180340000Y-94615000D03*
X175340000Y-94615000D03*
%TD*%
D19*
%TO.C,X0*%
X110490000Y-72390000D03*
D10*
X118110000Y-72390000D03*
X118110000Y-64770000D03*
X110490000Y-64770000D03*
%TD*%
%TO.C,R8*%
X74930000Y-81280000D03*
D11*
X77470000Y-81280000D03*
%TD*%
D10*
%TO.C,R6*%
X74930000Y-71120000D03*
D11*
X77470000Y-71120000D03*
%TD*%
D10*
%TO.C,C0*%
X96600000Y-120015000D03*
X101600000Y-120015000D03*
%TD*%
%TO.C,R2*%
X74930000Y-111760000D03*
D11*
X77470000Y-111760000D03*
%TD*%
M02*
